<svg xmlns="http://www.w3.org/2000/svg" xmlns:xlink="http://www.w3.org/1999/xlink" version="1.1" width="200" height="50" viewBox="0 0 200 50" xml:space="preserve">
<desc>Created with Fabric.js 3.5.0</desc>
<defs>
</defs>
<rect x="0" y="0" width="100%" height="100%" fill="rgba(255,255,255,0)"/>
<g transform="matrix(1 0 0 1 100.5112 26.13)" style="" id="371301">
		
<path xml:space="preserve" font-family="Aclonica" font-size="27" font-style="normal" font-weight="normal" style="stroke: none; stroke-width: 0; stroke-dasharray: none; stroke-linecap: butt; stroke-dashoffset: 0; stroke-linejoin: miter; stroke-miterlimit: 4; is-custom-font: none; font-file-url: none; fill: rgb(1,4,128); fill-rule: nonzero; opacity: 1; white-space: pre;" d="M-82.02 2.68L-82.02 2.68Q-82.02 3.91-82.33 4.84Q-82.64 5.78-83.20 6.46Q-83.76 7.15-84.53 7.61Q-85.29 8.07-86.19 8.35Q-87.10 8.63-88.11 8.75Q-89.11 8.86-90.16 8.86L-90.16 8.86Q-91.53 8.86-92.69 8.66Q-93.85 8.46-94.87 8.01Q-95.89 7.57-96.83 6.87Q-97.78 6.17-98.71 5.17L-98.71 5.17L-96.02 2.44Q-95.65 3.35-95.01 4.12Q-94.36 4.90-93.59 5.45Q-92.82 6.00-91.99 6.32Q-91.16 6.64-90.42 6.64L-90.42 6.64Q-89.55 6.64-88.78 6.51Q-88.02 6.39-87.45 6.10Q-86.89 5.81-86.56 5.32Q-86.24 4.84-86.24 4.12L-86.24 4.12Q-86.24 3.56-86.49 3.17Q-86.74 2.77-87.14 2.49Q-87.55 2.21-88.06 2.01Q-88.57 1.81-89.11 1.67Q-89.64 1.53-90.16 1.42Q-90.67 1.31-91.07 1.19L-91.07 1.19Q-91.84 0.97-92.69 0.71Q-93.53 0.45-94.35 0.12Q-95.17-0.21-95.90-0.63Q-96.63-1.06-97.18-1.65Q-97.74-2.24-98.07-3.01Q-98.40-3.78-98.40-4.78L-98.40-4.78Q-98.40-5.98-98.10-6.91Q-97.80-7.84-97.26-8.53Q-96.72-9.21-95.98-9.68Q-95.24-10.15-94.36-10.43Q-93.48-10.71-92.48-10.84Q-91.49-10.96-90.45-10.96L-90.45-10.96Q-89.02-10.96-87.86-10.70Q-86.69-10.44-85.70-9.95Q-84.71-9.46-83.89-8.78Q-83.06-8.10-82.34-7.27L-82.34-7.27L-85.03-4.54Q-85.34-5.49-85.90-6.26Q-86.46-7.02-87.15-7.57Q-87.84-8.12-88.59-8.41Q-89.34-8.71-90.04-8.71L-90.04-8.71Q-90.95-8.71-91.71-8.58Q-92.48-8.46-93.02-8.18Q-93.57-7.89-93.87-7.41Q-94.18-6.93-94.18-6.22L-94.18-6.22Q-94.18-5.65-93.95-5.26Q-93.73-4.86-93.35-4.58Q-92.98-4.31-92.50-4.13Q-92.03-3.95-91.52-3.82Q-91.01-3.69-90.52-3.59Q-90.02-3.49-89.62-3.37L-89.62-3.37Q-88.82-3.15-87.95-2.90Q-87.08-2.65-86.24-2.31Q-85.40-1.97-84.63-1.54Q-83.87-1.10-83.29-0.50Q-82.71 0.10-82.36 0.88Q-82.02 1.67-82.02 2.68ZM-63.87-6.75L-63.87 8.48L-68.32 8.48L-68.32 6.66Q-69.11 7.74-70.23 8.26Q-71.34 8.79-72.67 8.79L-72.67 8.79Q-74.41 8.79-75.79 8.17Q-77.16 7.55-78.11 6.47Q-79.06 5.40-79.56 3.95Q-80.06 2.50-80.06 0.84L-80.06 0.84Q-80.06-0.83-79.56-2.28Q-79.06-3.73-78.11-4.80Q-77.16-5.88-75.79-6.49Q-74.41-7.11-72.67-7.11L-72.67-7.11Q-71.79-7.11-70.99-6.85Q-70.20-6.59-69.53-6.11Q-68.86-5.62-68.36-4.95Q-67.85-4.27-67.56-3.44L-67.56-3.44L-65.58-6.75L-63.87-6.75ZM-68.35 0.84L-68.35 0.84Q-68.35 0.24-68.41-0.42Q-68.47-1.08-68.61-1.72Q-68.76-2.37-69.02-2.95Q-69.27-3.54-69.68-4.00Q-70.08-4.45-70.64-4.71Q-71.21-4.98-71.96-4.98L-71.96-4.98Q-72.71-4.98-73.27-4.71Q-73.82-4.44-74.22-3.98Q-74.61-3.53-74.87-2.94Q-75.13-2.34-75.27-1.70Q-75.42-1.05-75.48-0.40Q-75.54 0.26-75.54 0.84L-75.54 0.84Q-75.54 1.42-75.48 2.07Q-75.42 2.73-75.27 3.38Q-75.13 4.03-74.87 4.62Q-74.61 5.21-74.22 5.67Q-73.82 6.12-73.27 6.39Q-72.71 6.66-71.96 6.66L-71.96 6.66Q-71.28 6.66-70.74 6.38Q-70.21 6.10-69.81 5.62Q-69.41 5.15-69.13 4.54Q-68.85 3.93-68.68 3.29Q-68.51 2.64-68.43 2.00Q-68.35 1.36-68.35 0.84ZM-36.59-0.40L-36.59-0.40Q-36.59 1.16-36.96 2.87Q-37.33 4.57-38.00 6.18Q-38.66 7.80-39.60 9.23Q-40.53 10.67-41.68 11.72L-41.68 11.72L-43.35 10.82Q-42.97 10.13-42.66 9.27Q-42.34 8.42-42.08 7.47Q-41.81 6.52-41.61 5.52Q-41.42 4.51-41.28 3.52Q-41.14 2.52-41.07 1.59Q-41.01 0.65-41.01-0.17L-41.01-0.17Q-41.01-0.63-41.03-1.17Q-41.06-1.71-41.15-2.25Q-41.23-2.79-41.40-3.28Q-41.57-3.78-41.87-4.17Q-42.17-4.56-42.61-4.79Q-43.05-5.02-43.67-5.02L-43.67-5.02Q-44.28-5.02-44.71-4.70Q-45.13-4.37-45.44-3.86Q-45.74-3.34-45.92-2.70Q-46.10-2.05-46.19-1.40Q-46.28-0.75-46.31-0.15Q-46.35 0.44-46.35 0.85L-46.35 0.85L-46.35 8.48L-50.79 8.48L-50.79 1.39Q-50.79 0.93-50.78 0.28Q-50.76-0.38-50.81-1.09Q-50.86-1.80-50.98-2.51Q-51.11-3.21-51.38-3.77Q-51.65-4.32-52.11-4.67Q-52.57-5.02-53.27-5.02L-53.27-5.02Q-53.86-5.02-54.26-4.69Q-54.67-4.36-54.94-3.84Q-55.21-3.32-55.36-2.66Q-55.51-2.01-55.58-1.36Q-55.65-0.71-55.67-0.12Q-55.68 0.47-55.68 0.85L-55.68 0.85L-55.68 8.48L-60.15 8.48L-60.15-6.75L-58.44-6.75L-56.80-3.20Q-56.25-5.04-55.05-6.08Q-53.86-7.11-51.88-7.11L-51.88-7.11Q-50.10-7.11-48.93-6.38Q-47.76-5.64-47.09-3.98L-47.09-3.98Q-46.70-4.70-46.23-5.28Q-45.77-5.86-45.19-6.27Q-44.62-6.68-43.92-6.90Q-43.22-7.11-42.38-7.11L-42.38-7.11Q-40.82-7.11-39.72-6.61Q-38.62-6.10-37.92-5.20Q-37.22-4.31-36.91-3.07Q-36.59-1.84-36.59-0.40ZM-17.44 0.89L-17.44 0.89Q-17.44 2.55-17.94 4.00Q-18.44 5.45-19.39 6.52Q-20.34 7.60-21.71 8.22Q-23.08 8.84-24.82 8.84L-24.82 8.84Q-25.70 8.84-26.50 8.57Q-27.30 8.31-27.96 7.83Q-28.63 7.35-29.14 6.68Q-29.64 6.00-29.93 5.17L-29.93 5.17L-31.91 8.48L-33.62 8.48L-33.62-12.35L-29.17-12.35L-29.17-4.93Q-28.38-6.02-27.26-6.53Q-26.15-7.05-24.82-7.05L-24.82-7.05Q-23.08-7.05-21.71-6.43Q-20.34-5.81-19.39-4.74Q-18.44-3.67-17.94-2.22Q-17.44-0.77-17.44 0.89ZM-21.96 0.89L-21.96 0.89Q-21.96 0.31-22.02-0.34Q-22.08-1.00-22.22-1.64Q-22.37-2.29-22.62-2.88Q-22.88-3.48-23.28-3.93Q-23.67-4.39-24.22-4.66Q-24.78-4.93-25.53-4.93L-25.53-4.93Q-26.22-4.93-26.75-4.64Q-27.28-4.36-27.69-3.88Q-28.09-3.41-28.36-2.80Q-28.64-2.20-28.81-1.55Q-28.98-0.90-29.06-0.27Q-29.14 0.36-29.14 0.89L-29.14 0.89Q-29.14 1.48-29.08 2.14Q-29.02 2.80-28.88 3.45Q-28.73 4.10-28.48 4.69Q-28.22 5.28-27.82 5.73Q-27.42 6.19-26.85 6.45Q-26.29 6.72-25.53 6.72L-25.53 6.72Q-24.79 6.72-24.23 6.44Q-23.67 6.17-23.28 5.72Q-22.88 5.27-22.62 4.67Q-22.37 4.07-22.22 3.42Q-22.08 2.77-22.02 2.12Q-21.96 1.47-21.96 0.89ZM1.01-0.25L1.01-0.25Q1.01 1.30 0.63 2.97Q0.26 4.65-0.42 6.25Q-1.09 7.86-2.02 9.28Q-2.96 10.70-4.08 11.72L-4.08 11.72L-5.75 10.82Q-5.40 10.16-5.08 9.34Q-4.77 8.52-4.51 7.61Q-4.25 6.69-4.05 5.71Q-3.84 4.74-3.70 3.78Q-3.57 2.83-3.49 1.92Q-3.42 1.02-3.42 0.24L-3.42 0.24Q-3.42-0.27-3.46-0.86Q-3.50-1.45-3.63-2.03Q-3.75-2.62-3.96-3.16Q-4.17-3.70-4.52-4.11Q-4.87-4.52-5.37-4.77Q-5.86-5.02-6.53-5.02L-6.53-5.02Q-7.19-5.02-7.71-4.72Q-8.22-4.42-8.62-3.94Q-9.01-3.46-9.29-2.84Q-9.58-2.22-9.76-1.57Q-9.93-0.92-10.01-0.29Q-10.09 0.35-10.09 0.85L-10.09 0.85L-10.09 8.48L-14.56 8.48L-14.56-12.35L-10.11-12.35L-10.11-4.50Q-9.25-5.76-8.00-6.44Q-6.76-7.11-5.24-7.11L-5.24-7.11Q-3.66-7.11-2.49-6.60Q-1.31-6.09-0.53-5.17Q0.24-4.25 0.63-2.99Q1.01-1.74 1.01-0.25ZM19.28-6.75L19.28 8.48L14.82 8.48L14.82 6.66Q14.03 7.74 12.92 8.26Q11.81 8.79 10.47 8.79L10.47 8.79Q8.73 8.79 7.36 8.17Q5.99 7.55 5.04 6.47Q4.09 5.40 3.59 3.95Q3.09 2.50 3.09 0.84L3.09 0.84Q3.09-0.83 3.59-2.28Q4.09-3.73 5.04-4.80Q5.99-5.88 7.36-6.49Q8.73-7.11 10.47-7.11L10.47-7.11Q11.36-7.11 12.16-6.85Q12.95-6.59 13.62-6.11Q14.28-5.62 14.79-4.95Q15.30-4.27 15.59-3.44L15.59-3.44L17.57-6.75L19.28-6.75ZM14.80 0.84L14.80 0.84Q14.80 0.24 14.74-0.42Q14.68-1.08 14.53-1.72Q14.39-2.37 14.13-2.95Q13.88-3.54 13.47-4.00Q13.07-4.45 12.50-4.71Q11.94-4.98 11.19-4.98L11.19-4.98Q10.43-4.98 9.88-4.71Q9.33-4.44 8.93-3.98Q8.54-3.53 8.28-2.94Q8.02-2.34 7.88-1.70Q7.73-1.05 7.67-0.40Q7.61 0.26 7.61 0.84L7.61 0.84Q7.61 1.42 7.67 2.07Q7.73 2.73 7.88 3.38Q8.02 4.03 8.28 4.62Q8.54 5.21 8.93 5.67Q9.33 6.12 9.88 6.39Q10.43 6.66 11.19 6.66L11.19 6.66Q11.87 6.66 12.41 6.38Q12.94 6.10 13.34 5.62Q13.74 5.15 14.02 4.54Q14.30 3.93 14.47 3.29Q14.64 2.64 14.72 2.00Q14.80 1.36 14.80 0.84ZM36.83-6.75L30.83 8.48L26.82 8.48L21.28-6.75L25.74-6.75L29.80 5.38L33.74-6.75L36.83-6.75Z"/><path xml:space="preserve" font-family="Aclonica" font-size="27" font-style="normal" font-weight="normal" style="stroke: none; stroke-width: 0; stroke-dasharray: none; stroke-linecap: butt; stroke-dashoffset: 0; stroke-linejoin: miter; stroke-miterlimit: 4; is-custom-font: none; font-file-url: none; fill: rgb(255,2,2); fill-rule: nonzero; opacity: 1; white-space: pre;" d="M44.24 1.39L44.24 8.48L39.00 8.48L39.00-10.50L49.26-10.50Q50.59-10.50 51.81-10.15Q53.03-9.79 53.97-9.07Q54.90-8.35 55.46-7.27Q56.02-6.18 56.02-4.71L56.02-4.71Q56.02-3.79 55.76-2.98Q55.50-2.17 55.03-1.50Q54.56-0.83 53.93-0.29Q53.29 0.26 52.54 0.62Q51.79 0.99 50.95 1.19Q50.12 1.39 49.26 1.39L49.26 1.39L44.24 1.39ZM50.72-4.71L50.72-4.71Q50.72-6.55 49.79-7.60Q48.86-8.64 46.99-8.64L46.99-8.64L44.24-8.64L44.24-0.40L46.99-0.40Q47.99-0.40 48.70-0.73Q49.41-1.05 49.85-1.63Q50.30-2.21 50.51-2.99Q50.72-3.78 50.72-4.71ZM76.83-0.60L76.83-0.60L76.83-0.35Q76.80 0.76 76.60 1.94Q76.39 3.13 76.02 4.32Q75.65 5.50 75.14 6.66Q74.63 7.82 73.99 8.88Q73.35 9.95 72.61 10.87Q71.87 11.80 71.05 12.52L71.05 12.52L69.09 11.38Q69.55 10.60 69.93 9.69Q70.30 8.77 70.60 7.77Q70.91 6.77 71.13 5.71Q71.34 4.66 71.49 3.62Q71.63 2.58 71.71 1.57Q71.78 0.56 71.78-0.35L71.78-0.35Q71.78-1.06 71.77-1.97Q71.76-2.87 71.67-3.81Q71.57-4.74 71.34-5.63Q71.12-6.52 70.68-7.22Q70.24-7.92 69.54-8.34Q68.85-8.76 67.82-8.76L67.82-8.76Q66.91-8.76 66.26-8.45Q65.61-8.14 65.15-7.62Q64.70-7.10 64.43-6.42Q64.16-5.73 64.01-4.97Q63.85-4.21 63.81-3.44Q63.76-2.67 63.76-1.99L63.76-1.99L63.76 1.69L69.44 1.69L69.44 3.87L63.76 3.87L63.76 8.48L58.53 8.48L58.53-1.17Q58.53-3.24 59.19-5.02Q59.85-6.80 61.05-8.11Q62.26-9.42 63.95-10.17Q65.65-10.91 67.73-10.91L67.73-10.91Q69.14-10.91 70.37-10.51Q71.61-10.11 72.62-9.40Q73.64-8.70 74.43-7.73Q75.23-6.76 75.77-5.61Q76.30-4.46 76.58-3.19Q76.85-1.91 76.83-0.60ZM82.65-4.54L82.65 8.48L80.23 8.48L80.23-10.50L83.63-10.50L95.17 2.54L95.17-10.50L97.58-10.50L97.58 8.48L94.18 8.48L82.65-4.54Z"/></g>
</svg>