<svg xmlns="http://www.w3.org/2000/svg" viewBox="0 0 512 512"><linearGradient id="a" x1="256.5" x2="256.5" y1="-84" y2="283.887" gradientTransform="matrix(1 0 0 -1 0 512)" gradientUnits="userSpaceOnUse"><stop class="stopColorffffff svgShape" offset="0" stop-color="#fff" stop-opacity="0"/><stop class="stopColorfafbff svgShape" offset=".144" stop-color="#fffbfa" stop-opacity=".086"/><stop class="stopColorecf0ff svgShape" offset=".308" stop-color="#ffefec" stop-opacity=".185"/><stop class="stopColord5deff svgShape" offset=".483" stop-color="#ffdcd5" stop-opacity=".29"/><stop class="stopColorb5c5ff svgShape" offset=".665" stop-color="#b8b5ff" stop-opacity=".399"/><stop class="stopColor8da4ff svgShape" offset=".85" stop-color="#928dff" stop-opacity=".51"/><stop class="stopColor6686ff svgShape" offset="1" stop-color="#6d66ff" stop-opacity=".6"/></linearGradient><path fill="url(#a)" d="M368 198.3v307.3H145V266.2l77.6 77.6z"/><path fill="#ff2b00" d="M368 198.3 251.6 314.7l-29 29-29.1-29-48.5-48.5 29.1-29.1 48.5 48.5 116.3-116.3z" class="colorfcc047 svgShape"/><linearGradient id="b" x1="8" x2="109" y1="255.5" y2="255.5" gradientTransform="matrix(1 0 0 -1 0 512)" gradientUnits="userSpaceOnUse"><stop class="stopColor381fa1 svgShape" offset="0" stop-color="#060082"/><stop class="stopColor5f2fc9 svgShape" offset="1" stop-color="#362fc9"/></linearGradient><path fill="url(#b)" d="M99 266.5H18c-5.5 0-10-4.5-10-10s4.5-10 10-10h81c5.5 0 10 4.5 10 10s-4.5 10-10 10z"/><linearGradient id="c" x1="404" x2="505" y1="255.5" y2="255.5" gradientTransform="matrix(1 0 0 -1 0 512)" gradientUnits="userSpaceOnUse"><stop class="stopColor381fa1 svgShape" offset="0" stop-color="#060082"/><stop class="stopColor5f2fc9 svgShape" offset="1" stop-color="#362fc9"/></linearGradient><path fill="url(#c)" d="M495 266.5h-81c-5.5 0-10-4.5-10-10s4.5-10 10-10h81c5.5 0 10 4.5 10 10s-4.5 10-10 10z"/><linearGradient id="d" x1="246.5" x2="266.5" y1="453.5" y2="453.5" gradientTransform="matrix(1 0 0 -1 0 512)" gradientUnits="userSpaceOnUse"><stop class="stopColor381fa1 svgShape" offset="0" stop-color="#060082"/><stop class="stopColor5f2fc9 svgShape" offset="1" stop-color="#362fc9"/></linearGradient><path fill="url(#d)" d="M256.5 109c-5.5 0-10-4.5-10-10V18c0-5.5 4.5-10 10-10s10 4.5 10 10v81c0 5.5-4.5 10-10 10z"/><linearGradient id="e" x1="246.5" x2="266.5" y1="57.2" y2="57.2" gradientTransform="matrix(1 0 0 -1 0 512)" gradientUnits="userSpaceOnUse"><stop class="stopColor381fa1 svgShape" offset="0" stop-color="#060082"/><stop class="stopColor5f2fc9 svgShape" offset="1" stop-color="#362fc9"/></linearGradient><path fill="url(#e)" d="M256.5 505.6c-5.5 0-10-4.5-10-10V414c0-5.5 4.5-10 10-10s10 4.5 10 10v81.6c0 5.5-4.5 10-10 10z"/><linearGradient id="f" x1="358.375" x2="435.625" y1="116.013" y2="116.013" gradientTransform="matrix(1 0 0 -1 0 512)" gradientUnits="userSpaceOnUse"><stop class="stopColor381fa1 svgShape" offset="0" stop-color="#060082"/><stop class="stopColor5f2fc9 svgShape" offset="1" stop-color="#362fc9"/></linearGradient><path fill="url(#f)" d="M425.7 434.6c-2.6 0-5.1-1-7.1-2.9l-57.3-57.3c-3.9-3.9-3.9-10.2 0-14.1s10.2-3.9 14.1 0l57.3 57.3c3.9 3.9 3.9 10.2 0 14.1-1.9 1.9-4.4 2.9-7 2.9z"/><linearGradient id="g" x1="73.575" x2="150.925" y1="119.763" y2="119.763" gradientTransform="matrix(1 0 0 -1 0 512)" gradientUnits="userSpaceOnUse"><stop class="stopColor381fa1 svgShape" offset="0" stop-color="#060082"/><stop class="stopColor5f2fc9 svgShape" offset="1" stop-color="#362fc9"/></linearGradient><path fill="url(#g)" d="M83.6 430.9c-2.6 0-5.1-1-7.1-2.9-3.9-3.9-3.9-10.2 0-14.1l57.4-57.4c3.9-3.9 10.2-3.9 14.1 0 3.9 3.9 3.9 10.2 0 14.1L90.7 428c-2 1.9-4.5 2.9-7.1 2.9z"/><linearGradient id="h" x1="353.475" x2="430.725" y1="399.663" y2="399.663" gradientTransform="matrix(1 0 0 -1 0 512)" gradientUnits="userSpaceOnUse"><stop class="stopColor381fa1 svgShape" offset="0" stop-color="#060082"/><stop class="stopColor5f2fc9 svgShape" offset="1" stop-color="#362fc9"/></linearGradient><path fill="url(#h)" d="M363.5 150.9c-2.6 0-5.1-1-7.1-2.9-3.9-3.9-3.9-10.2 0-14.1l57.3-57.2c3.9-3.9 10.2-3.9 14.1 0s3.9 10.2 0 14.1L370.6 148c-2 1.9-4.5 2.9-7.1 2.9z"/><linearGradient id="i" x1="77.675" x2="154.825" y1="395.262" y2="395.262" gradientTransform="matrix(1 0 0 -1 0 512)" gradientUnits="userSpaceOnUse"><stop class="stopColor381fa1 svgShape" offset="0" stop-color="#060082"/><stop class="stopColor5f2fc9 svgShape" offset="1" stop-color="#362fc9"/></linearGradient><path fill="url(#i)" d="M144.9 155.3c-2.6 0-5.1-1-7.1-2.9L80.6 95.2c-3.9-3.9-3.9-10.2 0-14.1s10.2-3.9 14.1 0l57.2 57.2c3.9 3.9 3.9 10.2 0 14.1-1.9 1.9-4.4 2.9-7 2.9z"/><path fill="#4139ea" d="M197 120.6c-4 0-7.7-2.4-9.3-6.3l-15.1-37.9c-2-5.1.5-10.9 5.6-13 5.1-2 10.9.5 13 5.6l15.1 37.9c2 5.1-.5 10.9-5.6 13-1.2.5-2.5.7-3.7.7zM109.9 208.8c-1.2 0-2.4-.2-3.5-.6l-33.8-12.7c-5.2-1.9-7.8-7.7-5.8-12.9 1.9-5.2 7.7-7.8 12.9-5.8l33.8 12.7c5.2 1.9 7.8 7.7 5.8 12.9-1.5 3.9-5.4 6.4-9.4 6.4zM76.1 343.9c-3.4 0-6.8-1.8-8.6-5-2.8-4.8-1.2-10.9 3.6-13.7l33.8-19.7c4.8-2.8 10.9-1.2 13.7 3.6 2.8 4.8 1.2 10.9-3.6 13.7l-33.8 19.7c-1.6 1-3.4 1.4-5.1 1.4zM175.5 445.9c-1.3 0-2.5-.2-3.8-.7-5.1-2.1-7.6-7.9-5.5-13l14.9-36.4c2.1-5.1 7.9-7.6 13-5.5s7.6 7.9 5.5 13l-14.9 36.4c-1.5 3.9-5.3 6.2-9.2 6.2zM338.4 445.9c-3.9 0-7.5-2.3-9.2-6l-15.8-36.4c-2.2-5.1.1-11 5.2-13.2s11 .1 13.2 5.2l15.8 36.4c2.2 5.1-.1 11-5.2 13.2-1.3.5-2.7.8-4 .8zM435.5 338.2c-1.3 0-2.7-.3-4-.8l-32.4-14c-5.1-2.2-7.4-8.1-5.2-13.1 2.2-5.1 8.1-7.4 13.1-5.2l32.4 14c5.1 2.2 7.4 8.1 5.2 13.1-1.6 3.7-5.2 6-9.1 6zM400.4 202.5c-3.8 0-7.5-2.2-9.2-6-2.2-5.1.1-11 5.1-13.2l35.1-15.5c5.1-2.2 11 .1 13.2 5.1 2.2 5.1-.1 11-5.1 13.2l-35.1 15.5c-1.3.6-2.6.9-4 .9zM319.9 122.3c-.9 0-1.9-.1-2.8-.4-5.3-1.6-8.3-7.1-6.8-12.4L322 69.9c1.6-5.3 7.1-8.3 12.4-6.8 5.3 1.6 8.3 7.1 6.8 12.4l-11.7 39.6c-1.3 4.4-5.3 7.2-9.6 7.2z" class="color39ea96 svgShape"/><path fill="#ff2b00" d="M390.3 10.8s0 30.9-30.8 30.9c0 0 30.8 0 30.8 30.9 0 0 0-30.9 30.9-30.9 0 0-30.9 0-30.9-30.9zm-19.6 44.9s0 11.2-11.2 11.2c0 0 11.2 0 11.2 11.2 0 0 0-11.2 11.2-11.2 0 0-11.2 0-11.2-11.2zM116.2 351.7s0 17.4-17.4 17.4c0 0 17.4 0 17.4 17.4 0 0 0-17.4 17.4-17.4.1 0-17.4 0-17.4-17.4z" class="colorfcc047 svgShape"/></svg>