<svg xmlns="http://www.w3.org/2000/svg" viewBox="0 0 22.6 22.6" id="printer"><path style="font-variant-ligatures:normal;font-variant-position:normal;font-variant-caps:normal;font-variant-numeric:normal;font-variant-alternates:normal;font-variant-east-asian:normal;font-feature-settings:normal;font-variation-settings:normal;text-indent:0;text-decoration-line:none;text-decoration-style:solid;text-decoration-color:#000;text-transform:none;text-orientation:mixed;white-space:normal;shape-padding:0;shape-margin:0;inline-size:0;isolation:auto;mix-blend-mode:normal" fill="#ff0000" d="M 18.652344 1.3359375 C 17.180105 1.3338475 15.984506 2.5258082 15.982422 3.9980469 L 15.982422 25.294922 L 69.304688 25.294922 L 69.304688 3.9980469 C 69.302588 2.5287564 68.111867 1.3380172 66.642578 1.3359375 L 18.652344 1.3359375 z " transform="scale(.26484)" class="color69b6fb svgShape"></path><path style="font-variant-ligatures:normal;font-variant-position:normal;font-variant-caps:normal;font-variant-numeric:normal;font-variant-alternates:normal;font-variant-east-asian:normal;font-feature-settings:normal;font-variation-settings:normal;text-indent:0;text-decoration-line:none;text-decoration-style:solid;text-decoration-color:#000;text-transform:none;text-orientation:mixed;white-space:normal;shape-padding:0;shape-margin:0;inline-size:0;isolation:auto;mix-blend-mode:normal" fill="#1a159d" d="M 4.0019531 22.654297 C 2.5325361 22.656297 1.3418344 23.846989 1.3398438 25.316406 L 1.3398438 59.941406 C 1.3418337 61.410823 2.5325357 62.601525 4.0019531 62.603516 L 81.292969 62.603516 C 82.762386 62.601516 83.953088 61.410823 83.955078 59.941406 L 83.955078 25.316406 C 83.953078 23.846989 82.762386 22.656288 81.292969 22.654297 L 4.0019531 22.654297 z " transform="scale(.26484)" class="color15589d svgShape"></path><path fill="#423bf9" d="M 42.666016 1.3359375 L 42.666016 25.294922 L 69.304688 25.294922 L 69.304688 3.9980469 C 69.302588 2.5287564 68.111867 1.3380172 66.642578 1.3359375 L 42.666016 1.3359375 z " transform="scale(.26484)" style="font-variant-ligatures:normal;font-variant-position:normal;font-variant-caps:normal;font-variant-numeric:normal;font-variant-alternates:normal;font-variant-east-asian:normal;font-feature-settings:normal;font-variation-settings:normal;text-indent:0;text-decoration-line:none;text-decoration-style:solid;text-decoration-color:#000;text-transform:none;text-orientation:mixed;white-space:normal;shape-padding:0;shape-margin:0;inline-size:0;isolation:auto;mix-blend-mode:normal" class="color3ba4f9 svgShape"></path><path fill="#05008e" d="M 42.666016 22.654297 L 42.666016 62.603516 L 81.292969 62.603516 C 82.762386 62.601516 83.953088 61.410823 83.955078 59.941406 L 83.955078 25.316406 C 83.953078 23.846989 82.762386 22.656288 81.292969 22.654297 L 42.666016 22.654297 z " transform="scale(.26484)" class="color12467d svgShape"></path><path fill="#ff0000" d="M 18.841797 46.613281 C 17.370091 46.610981 16.174946 47.801733 16.171875 49.273438 L 16.171875 57.279297 L 16.171875 82.242188 C 16.54182 83.272528 17.518252 84.013543 18.675781 84.011719 L 66.628906 84.011719 C 68.09756 84.008619 69.287077 82.818265 69.289062 81.349609 L 69.289062 62.603516 L 69.289062 48.382812 C 68.920412 47.355231 67.948856 46.615688 66.794922 46.613281 L 18.841797 46.613281 z " transform="scale(.26484)" class="color69b6fb svgShape"></path><path fill="#423bf9" d="M 42.666016 46.613281 L 42.666016 84.011719 L 66.628906 84.011719 C 68.09756 84.008619 69.287078 82.818265 69.289062 81.349609 L 69.289062 62.603516 L 69.289062 48.382812 C 68.920413 47.355232 67.948856 46.615688 66.794922 46.613281 L 42.666016 46.613281 z " transform="scale(.26484)" class="color3ba4f9 svgShape"></path><path fill="#1a159d" d="M29.300781 67.964844a2.6657228 2.6657228 0 00-2.669922 2.662109 2.6657228 2.6657228 0 002.669922 2.662109h26.619141a2.6657228 2.6657228 0 002.662109-2.662109 2.6657228 2.6657228 0 00-2.662109-2.662109zM29.300781 57.392578a2.6657228 2.6657228 0 00-2.669922 2.66211 2.6657228 2.6657228 0 002.669922 2.662109h26.619141a2.6657228 2.6657228 0 002.662109-2.662109 2.6657228 2.6657228 0 00-2.662109-2.66211z" transform="scale(.26484)" style="font-variant-ligatures:normal;font-variant-position:normal;font-variant-caps:normal;font-variant-numeric:normal;font-variant-alternates:normal;font-variant-east-asian:normal;font-feature-settings:normal;font-variation-settings:normal;text-indent:0;text-decoration-line:none;text-decoration-style:solid;text-decoration-color:#000;text-transform:none;text-orientation:mixed;white-space:normal;shape-padding:0;shape-margin:0;inline-size:0;isolation:auto;mix-blend-mode:normal" class="color15589d svgShape"></path><path fill="#05008e" d="M42.666016 67.964844v5.324218h13.253906a2.6657228 2.6657228 0 002.662109-2.662109 2.6657228 2.6657228 0 00-2.662109-2.662109zM42.666016 57.392578v5.324219h13.253906a2.6657228 2.6657228 0 002.662109-2.662109 2.6657228 2.6657228 0 00-2.662109-2.66211z" transform="scale(.26484)" class="color12467d svgShape"></path></svg>