<svg xmlns="http://www.w3.org/2000/svg" fill="none" viewBox="0 0 24 24"><path fill="red" fill-rule="evenodd" d="M2.25 12C2.25 11.5858 2.58579 11.25 3 11.25H15C15.4142 11.25 15.75 11.5858 15.75 12C15.75 12.4142 15.4142 12.75 15 12.75H3C2.58579 12.75 2.25 12.4142 2.25 12Z" class="color5e94ff svgShape" clip-rule="evenodd"/><path fill="red" fill-rule="evenodd" d="M10.9697 7.96967C11.2626 7.67678 11.7374 7.67678 12.0303 7.96967L15.5303 11.4697C15.8232 11.7626 15.8232 12.2374 15.5303 12.5303L12.0303 16.0303C11.7374 16.3232 11.2626 16.3232 10.9697 16.0303C10.6768 15.7374 10.6768 15.2626 10.9697 14.9697L13.9393 12L10.9697 9.03033C10.6768 8.73744 10.6768 8.26256 10.9697 7.96967Z" class="color5e94ff svgShape" clip-rule="evenodd"/><path fill="red" fill-rule="evenodd" d="M8.25 4C8.25 3.58579 8.58579 3.25 9 3.25H21C21.4142 3.25 21.75 3.58579 21.75 4V20C21.75 20.4142 21.4142 20.75 21 20.75H9C8.58579 20.75 8.25 20.4142 8.25 20V17C8.25 16.5858 8.58579 16.25 9 16.25C9.41421 16.25 9.75 16.5858 9.75 17V19.25H20.25V4.75H9.75V7C9.75 7.41421 9.41421 7.75 9 7.75C8.58579 7.75 8.25 7.41421 8.25 7V4Z" class="color5e94ff svgShape" clip-rule="evenodd"/><path fill="#05008e" fill-rule="evenodd" d="M15.75 12H2.25C2.25 12.4142 2.58579 12.75 3 12.75H15C15.4142 12.75 15.75 12.4142 15.75 12Z" class="color5485e5 svgShape" clip-rule="evenodd"/><path fill="#05008e" fill-rule="evenodd" d="M15.75 12C15.75 12.1919 15.6768 12.3839 15.5303 12.5303L12.0303 16.0303C11.7374 16.3232 11.2626 16.3232 10.9697 16.0303C10.6768 15.7374 10.6768 15.2626 10.9697 14.9697L13.9393 12H15.75Z" class="color5485e5 svgShape" clip-rule="evenodd"/><path fill="#05008e" fill-rule="evenodd" d="M21.75 12V20C21.75 20.4142 21.4142 20.75 21 20.75H9C8.58579 20.75 8.25 20.4142 8.25 20V17C8.25 16.5858 8.58579 16.25 9 16.25C9.41421 16.25 9.75 16.5858 9.75 17V19.25H20.25V12H21.75Z" class="color5485e5 svgShape" clip-rule="evenodd"/></svg>