<svg xmlns="http://www.w3.org/2000/svg" data-name="Layer 1" viewBox="0 0 512 512"><path fill="#05008e" d="M258.281 180.588h66.842a7 7 0 0 0 0-14H258.281a7 7 0 0 0 0 14zM385.122 227.859H258.281a7 7 0 0 0 0 14H385.123a7 7 0 1 0 0-14zM385.122 289.131H258.281a7 7 0 0 0 0 14H385.123a7 7 0 1 0 0-14zM126.289 159.505a29.659 29.659 0 0 0 29.626-29.626v-9.05a29.626 29.626 0 1 0-59.252 0v9.05A29.66 29.66 0 0 0 126.289 159.505zm-15.626-38.676a15.626 15.626 0 0 1 31.252 0v9.05a15.626 15.626 0 1 1-31.252 0zM153.573 165.415H147.86a7 7 0 0 0-5.9 3.239l-5.5 8.63-6.308-3.529a6.99 6.99 0 0 0-6.992.09l-5.323 3.16-4.757-8.126a7 7 0 0 0-6.041-3.464H100.6A30.51 30.51 0 0 0 70.2 198.624v56.819a7 7 0 0 0 1.355 4.139l17.626 24.042L93.1 344.031a20.459 20.459 0 0 0 20.513 19.679h27.06a20.459 20.459 0 0 0 20.512-19.679l3.917-60.42 17.516-24.06a7 7 0 0 0 1.341-4.12V198.623a30.507 30.507 0 0 0-30.386-33.208zm16.421 32.171a6.959 6.959 0 0 0-.036.707v54.86l-17.37 23.859a7 7 0 0 0-1.326 3.667l-4.054 62.535c0 .067-.008.134-.01.2a6.508 6.508 0 0 1-6.526 6.3h-27.06a6.508 6.508 0 0 1-6.526-6.3c0-.066-.006-.133-.01-.2l-4.053-62.535a7 7 0 0 0-1.34-3.686L84.2 253.151V198.292a6.925 6.925 0 0 0-.036-.706A16.509 16.509 0 0 1 100.6 179.415h2.428l6.289 10.742a7 7 0 0 0 9.671 2.448l7.852-4.662 8.558 4.787a7 7 0 0 0 9.321-2.349l6.987-10.967h1.873a16.507 16.507 0 0 1 16.42 18.172z" class="color00acea svgShape"/><path fill="red" d="M449.919,128.128H430.661v-18.7a37.042,37.042,0,0,0-37-37H62.081a37.042,37.042,0,0,0-37,37V346.315a37.042,37.042,0,0,0,37,37h18.7v19.259a37.042,37.042,0,0,0,37,37H449.919a37.042,37.042,0,0,0,37-37V165.128A37.042,37.042,0,0,0,449.919,128.128ZM39.081,346.314V109.427a23.026,23.026,0,0,1,23-23H393.662a23.026,23.026,0,0,1,23,23V346.315a23.026,23.026,0,0,1-23,23H62.081A23.027,23.027,0,0,1,39.081,346.314Zm433.838,56.259a23.026,23.026,0,0,1-23,23H117.782a23.026,23.026,0,0,1-23-23V383.314H393.661a37.042,37.042,0,0,0,37-37V142.128h19.258a23.026,23.026,0,0,1,23,23Z" class="color00efd1 svgShape"/></svg>