<svg xmlns="http://www.w3.org/2000/svg" viewBox="0 0 32 32"><path style="line-height:normal;text-indent:0;text-align:start;text-decoration-line:none;text-decoration-style:solid;text-decoration-color:#000;text-transform:none;block-progression:tb;isolation:auto;mix-blend-mode:normal" fill="red" d="M1249.977-86.834a.5.5 0 1 0 0 1c1.409 0 2.5 1.045 2.5 2.326v22.674c0 1.653 1.346 3 3 3 1.653 0 3-1.347 3-3v-1.402a.5.5 0 1 0-1 0v1.402c0 1.117-.884 2-2 2-1.117 0-2-.883-2-2v-22.674c0-1.85-1.586-3.326-3.5-3.326z" class="colorf05542 svgShape" color="#000" font-family="sans-serif" font-weight="400" overflow="visible" transform="matrix(.99977 0 0 1 -1248.182 86.834)"/><path style="line-height:normal;text-indent:0;text-align:start;text-decoration-line:none;text-decoration-style:solid;text-decoration-color:#000;text-transform:none;block-progression:tb;isolation:auto;mix-blend-mode:normal" fill="red" d="M1260.477-81.834c-1.654 0-3 1.347-3 3v1.363a.5.5 0 1 0 1 0v-1.363c0-1.117.883-2 2-2 .88 0 1.308.279 1.59.65.28.372.397.896.41 1.364v17.986a.5.5 0 1 0 1 0v-18a.5.5 0 0 0 0-.014c-.016-.601-.15-1.326-.612-1.937-.462-.611-1.27-1.049-2.388-1.049zm-2.508 19.154a.5.5 0 0 0-.492.506v1.34a.5.5 0 1 0 1 0v-1.34a.5.5 0 0 0-.508-.506z" class="colorf05542 svgShape" color="#000" font-family="sans-serif" font-weight="400" overflow="visible" transform="matrix(.99977 0 0 1 -1248.182 86.834)"/><path style="line-height:normal;text-indent:0;text-align:start;text-decoration-line:none;text-decoration-style:solid;text-decoration-color:#000;text-transform:none;block-progression:tb;isolation:auto;mix-blend-mode:normal" fill="#05008e" d="M1255.477-75.834v4h7.625v-1h-6.625v-2h6.625v-1h-7.625zm13.625 0v1h10.375v2h-10.375v1h11.375v-4h-11.375z" class="color2b4255 svgShape" color="#000" font-family="sans-serif" font-weight="400" overflow="visible" transform="matrix(.99977 0 0 1 -1248.182 86.834)"/><path style="line-height:normal;text-indent:0;text-align:start;text-decoration-line:none;text-decoration-style:solid;text-decoration-color:#000;text-transform:none;block-progression:tb;isolation:auto;mix-blend-mode:normal" fill="#05008e" d="M1257.049-77.834a1.58 1.58 0 0 0-1.572 1.572v12.858c0 .862.71 1.57 1.572 1.57h5.463v-1h-5.463a.56.56 0 0 1-.572-.57v-12.858a.56.56 0 0 1 .572-.572h5.463v-1h-5.463zm11.812 0v1h10.043a.56.56 0 0 1 .573.572v12.858a.56.56 0 0 1-.573.57H1268.928v1H1278.904c.862 0 1.573-.708 1.573-1.57v-12.858a1.58 1.58 0 0 0-1.573-1.572h-10.043z" class="color2b4255 svgShape" color="#000" font-family="sans-serif" font-weight="400" overflow="visible" transform="matrix(.99977 0 0 1 -1248.182 86.834)"/><path fill="#f84e4e" d="M14.214 22h-1.21v1h1.21z" class="colorf8b84e svgShape"/><path style="line-height:normal;text-indent:0;text-align:start;text-decoration-line:none;text-decoration-style:solid;text-decoration-color:#000;text-transform:none;block-progression:tb;isolation:auto;mix-blend-mode:normal" fill="#cacad8" d="M1257.477-69.834v3h5.468v-1h-4.468v-1h4.468v-1h-5.468z" class="colorcad1d8 svgShape" color="#000" font-family="sans-serif" font-weight="400" overflow="visible" transform="matrix(.99977 0 0 1 -1248.182 86.834)"/><path style="line-height:normal;text-indent:0;text-align:start;text-decoration-line:none;text-decoration-style:solid;text-decoration-color:#000;text-transform:none;block-progression:tb;isolation:auto;mix-blend-mode:normal" fill="red" d="M1265.977-81.834a.5.5 0 1 0 0 1c1.409 0 2.5 1.045 2.5 2.326v22.674h-5.002v-22.674a.5.5 0 1 0-1 0v23.174a.5.5 0 0 0 .5.5h6.002a.5.5 0 0 0 .05-.002.5.5 0 0 0 .05-.008.5.5 0 0 0 .4-.49v-23.174c0-1.85-1.585-3.326-3.5-3.326z" class="colorf05542 svgShape" color="#000" font-family="sans-serif" font-weight="400" overflow="visible" transform="matrix(.99977 0 0 1 -1248.182 86.834)"/><path style="line-height:normal;text-indent:0;text-align:start;text-decoration-line:none;text-decoration-style:solid;text-decoration-color:#000;text-transform:none;block-progression:tb;isolation:auto;mix-blend-mode:normal" fill="red" fill-rule="evenodd" d="M1250.117-86.834a.5.5 0 1 0 0 1h12.86c1.409 0 2.5 1.045 2.5 2.326v1.674h-4.809a.5.5 0 1 0 0 1h5.27a.5.5 0 0 0 .484-.377l.039-.152a.5.5 0 0 0 .016-.123v-2.022c0-1.85-1.585-3.326-3.5-3.326h-12.86zm5.375 28.004a.5.5 0 1 0 0 1h7.443a.5.5 0 1 0 0-1h-7.443z" class="colorf05542 svgShape" color="#000" font-family="sans-serif" font-weight="400" overflow="visible" transform="matrix(.99977 0 0 1 -1248.182 86.834)"/><path fill="#f84e4e" d="M12.005 22h-3v1h3v-1z" class="colorf8b84e svgShape"/><path style="line-height:normal;text-indent:0;text-align:start;text-decoration-line:none;text-decoration-style:solid;text-decoration-color:#000;text-transform:none;block-progression:tb;isolation:auto;mix-blend-mode:normal" fill="#2a25b3" d="M1272.977-70.832a2.508 2.508 0 0 0-2.5 2.5c0 1.375 1.125 2.5 2.5 2.5a2.502 2.502 0 0 0 1.875-.854l.289-.33-.291-.33a1.497 1.497 0 0 1-.375-.986v-.002a1.5 1.5 0 0 1 .375-.988l.289-.33-.29-.33a2.502 2.502 0 0 0-1.872-.85zm0 1c.349 0 .644.196.91.414-.18.35-.41.686-.41 1.086s.231.736.412 1.086c-.266.219-.563.413-.912.414-.835 0-1.5-.666-1.5-1.5s.665-1.5 1.5-1.5z" class="color25b39e svgShape" color="#000" font-family="sans-serif" font-weight="400" overflow="visible" transform="matrix(.99977 0 0 1 -1248.182 86.834)"/><path fill="#f84e4e" d="M24.002 22h-3v1h3v-1z" class="colorf8b84e svgShape"/><path style="line-height:normal;text-indent:0;text-align:start;text-decoration-line:none;text-decoration-style:solid;text-decoration-color:#000;text-transform:none;block-progression:tb;isolation:auto;mix-blend-mode:normal" fill="red" d="M1275.977-70.834a2.508 2.508 0 0 0-2.5 2.5c0 1.375 1.125 2.5 2.5 2.5 1.374 0 2.5-1.125 2.5-2.5s-1.126-2.5-2.5-2.5zm0 1c.834 0 1.5.666 1.5 1.5s-.666 1.5-1.5 1.5c-.835 0-1.5-.666-1.5-1.5s.665-1.5 1.5-1.5z" class="colorf05542 svgShape" color="#000" font-family="sans-serif" font-weight="400" overflow="visible" transform="matrix(.99977 0 0 1 -1248.182 86.834)"/><path style="line-height:normal;text-indent:0;text-align:start;text-decoration-line:none;text-decoration-style:solid;text-decoration-color:#000;text-transform:none;block-progression:tb;isolation:auto;mix-blend-mode:normal" fill="#05008e" fill-rule="evenodd" d="M1264.477-77.334v1h2v-1h-2zm0 2v1h3v-1h-3zm0 2v1h2v-1h-2zm0 2v1h1v-1h-1zm0 2v1h3v-1h-3zm0 2v1h2v-1h-2z" class="color2b4255 svgShape" color="#000" font-family="sans-serif" font-weight="400" overflow="visible" transform="matrix(.99977 0 0 1 -1248.182 86.834)"/></svg>