<svg xmlns="http://www.w3.org/2000/svg" viewBox="-49 141 512 512" id="Link"><path fill="none" d="M147.1 497.4c-4.1 0-8.3-1.3-11.8-3.9-8.9-6.5-10.8-19.1-4.3-28l22.2-30.2-25.4-18.8c-2.1-1.6-4.3-1.9-5.9-1.9-.6 0-1.1 0-1.5.1-1.5.2-4.4 1-6.6 3.9L28 534.4c-3.2 4.4-2.3 10.8 2.1 14l84.5 62.5c2.9 2.1 5.9 2 7.4 1.8 1.5-.2 4.4-1 6.6-3.9L214.3 493c3.2-4.4 2.3-10.8-2.1-14l-26.9-19.9-22.1 30.1c-3.9 5.3-10 8.2-16.1 8.2zM382.4 249.1l-84.5-62.5c-1.7-1.3-3.8-1.9-5.9-1.9-3.1 0-6.2 1.4-8.1 4l-85.8 115.9c-2.1 2.9-2 5.9-1.8 7.4s1 4.4 3.9 6.6l25.1 18.6 24.8-33.7c6.5-8.9 19.1-10.8 28-4.3s10.8 19.1 4.3 28l-24.9 33.9 27.2 20.1c4.4 3.2 10.8 2.3 14-2.1l85.8-115.9c2.1-2.9 2-5.9 1.8-7.4-.2-1.7-1-4.6-3.9-6.7z"></path><linearGradient id="a" x1="-13.989" x2="426.433" y1="398.705" y2="398.705" gradientUnits="userSpaceOnUse"><stop offset="0" stop-color="#030881" class="stopColorff884b svgShape"></stop><stop offset=".35" stop-color="#ff4c4c" class="stopColorff634c svgShape"></stop><stop offset=".655" stop-color="#fe4a4a" class="stopColorfe4a4f svgShape"></stop><stop offset="1" stop-color="#ff0000" class="stopColorfe4840 svgShape"></stop></linearGradient><path fill="url(#a)" d="M425.9 249.7c-2-13.2-9-24.9-19.7-32.8l-84.5-62.5c-22.2-16.4-53.5-11.7-69.9 10.4L166 280.7c-16.4 22.2-11.7 53.5 10.4 69.9l25.2 18.7-24.8 33.8-25.3-18.8c-10.7-7.9-23.9-11.2-37.1-9.2s-24.9 9-32.8 19.7L-4.2 510.6c-16.4 22.2-11.7 53.5 10.4 69.9L90.7 643c8.7 6.4 19 9.8 29.6 9.8 2.5 0 5-.2 7.5-.6 13.2-2 24.9-9 32.8-19.7l85.8-115.9c16.4-22.2 11.7-53.5-10.4-69.9l-27-20 24.8-33.8 27.1 20.1c8.9 6.6 19.3 9.8 29.7 9.8 15.3 0 30.5-7 40.3-20.2l85.8-115.9c7.9-10.6 11.1-23.7 9.2-37zM212.2 479c4.4 3.2 5.3 9.6 2.1 14l-85.8 115.9c-2.1 2.9-5 3.7-6.6 3.9-1.5.2-4.6.3-7.4-1.8L30 548.5c-4.4-3.2-5.3-9.6-2.1-14l85.8-115.9c2.1-2.9 5-3.7 6.6-3.9.4-.1.9-.1 1.5-.1 1.6 0 3.8.4 5.9 1.9l25.4 18.8-22.1 30.2c-6.5 8.9-4.6 21.4 4.3 28 3.6 2.6 7.7 3.9 11.8 3.9 6.1 0 12.2-2.8 16.1-8.2l22.1-30.1 26.9 19.9zm172.3-215.9L298.7 379c-3.2 4.4-9.6 5.3-14 2.1L257.5 361l24.9-33.9c6.5-8.9 4.6-21.4-4.3-28-8.9-6.5-21.4-4.6-28 4.3l-24.8 33.7-25.1-18.6c-2.9-2.1-3.7-5-3.9-6.6-.2-1.5-.3-4.6 1.8-7.4l85.8-115.9c1.9-2.6 5-4 8.1-4 2.1 0 4.1.6 5.9 1.9l84.5 62.5c2.9 2.1 3.7 5 3.9 6.6s.3 4.6-1.8 7.5z"></path></svg>