<svg xmlns="http://www.w3.org/2000/svg" fill="none" viewBox="0 0 24 24" id="logout"><path fill="#ff0000" fill-rule="evenodd" d="M2 13H13.5V11H2V13Z" clip-rule="evenodd" class="color90caea svgShape"></path><path fill="#ff0000" fill-rule="evenodd" d="M4.79282 7.79289L1.29282 11.2929C0.902294 11.6834 0.902294 12.3166 1.29282 12.7071L4.79282 16.2071L6.20703 14.7929L3.41414 12L6.20703 9.20711L4.79282 7.79289Z" clip-rule="evenodd" class="color90caea svgShape"></path><path fill="#05006c" fill-rule="evenodd" d="M14.1382 5C11.9784 5 10.0477 6.01715 8.78587 7.61884L7.21484 6.38115C8.83473 4.325 11.3322 3 14.1382 3C19.0489 3 23.0004 7.04589 23.0004 12C23.0004 16.9541 19.0489 21 14.1382 21C11.3322 21 8.83473 19.675 7.21484 17.6188L8.78587 16.3812C10.0477 17.9828 11.9784 19 14.1382 19C17.9117 19 21.0004 15.8824 21.0004 12C21.0004 8.11756 17.9117 5 14.1382 5Z" clip-rule="evenodd" class="color3747d6 svgShape"></path></svg>