<svg xmlns="http://www.w3.org/2000/svg" xmlns:xlink="http://www.w3.org/1999/xlink" viewBox="0 0 64 64"><defs><linearGradient id="a"><stop class="stopColor000092 svgShape" offset="0" stop-color="#05008e"/><stop class="stopColorff00f3 svgShape" offset="1" stop-color="red"/></linearGradient><linearGradient id="b" x1="2" x2="58" y1="32" y2="32" gradientUnits="userSpaceOnUse" xlink:href="#a"/></defs><path style="line-height:normal;text-indent:0;text-align:start;text-decoration-line:none;text-decoration-style:solid;text-decoration-color:#000;text-transform:none;block-progression:tb;isolation:auto;mix-blend-mode:normal" fill="url(#b)" fill-rule="evenodd" d="M30 2v4h1.5v8.025c-4.166.26-7.5 3.72-7.5 7.938V26h-2c-.42 0-.81.132-1.133.355l-7.392-4.107c.014-.082.025-.163.025-.248 0-.647-.421-1.2-1-1.408V15H14v-4h-4v4h1.5v5.592c-.579.208-1 .761-1 1.408 0 .823.677 1.5 1.5 1.5.377 0 .72-.148.984-.38l7.223 4.013A1.974 1.974 0 0 0 20 28v7.5H6V34H2v4h4v-1.5h14v3.484l-7.014 3.899A1.486 1.486 0 0 0 12 43.5c-.823 0-1.5.678-1.5 1.5 0 .647.421 1.198 1 1.406V52H10v4h4v-4h-1.5v-5.594c.579-.208 1-.76 1-1.406a1.47 1.47 0 0 0-.025-.246L20 41.129V46c0 1.1.9 2 2 2h9.5v10H30v4h4v-4h-1.5V48H42c1.1 0 2-.9 2-2v-4.871l6.525 3.625A1.47 1.47 0 0 0 50.5 45c0 .647.421 1.198 1 1.406V52H50v4h4v-4h-1.5v-5.594c.579-.208 1-.76 1-1.406 0-.822-.677-1.5-1.5-1.5-.377 0-.72.147-.984.38L44 39.987V36.5h14V38h4v-4h-4v1.5H44V28c0-.311-.079-.604-.207-.867l7.225-4.014c.264.233.606.381.982.381.823 0 1.5-.677 1.5-1.5 0-.647-.421-1.2-1-1.408V15H54v-4h-4v4h1.5v5.592c-.579.208-1 .761-1 1.408 0 .085.011.166.025.248l-7.392 4.107A1.98 1.98 0 0 0 42 26h-2v-4.037c0-4.218-3.334-7.678-7.5-7.938V6H34V2h-4zm1 1h2v2h-2V3zm-20 9h2v2h-2v-2zm40 0h2v2h-2v-2zm-19 3c3.856 0 7 3.123 7 6.963V26h-1.998v-4.03c0-2.758-2.22-4.97-5.004-4.97-2.784 0-5.004 2.212-5.004 4.97V26H25v-4.037C25 18.123 28.144 15 32 15zm-.002 3c2.263 0 4.004 1.741 4.004 3.97V26h-8.008v-4.03c0-2.229 1.741-3.97 4.004-3.97zM12 21.5c.282 0 .5.218.5.5 0 .282-.218.5-.5.5a.493.493 0 0 1-.5-.5c0-.282.218-.5.5-.5zm40 0c.282 0 .5.218.5.5 0 .282-.218.5-.5.5a.493.493 0 0 1-.5-.5c0-.282.218-.5.5-.5zM22 27h20c.563 0 1 .437 1 1v10H21V28c0-.563.437-1 1-1zm10 2a2.508 2.508 0 0 0-2.5 2.5c0 .77.406 1.443 1 1.912v3.586h3V33.41c.594-.469.999-1.141 1-1.91 0-1.375-1.125-2.5-2.5-2.5zm0 1a1.499 1.499 0 0 1 .75 2.797l-.25.144V36h-1v-3.057l-.25-.144a1.5 1.5 0 0 1-.75-1.299c0-.834.666-1.5 1.5-1.5zM3 35h2v2H3v-2zm56 0h2v2h-2v-2zm-38 4h22v5H21v-5zm1.5 1v3h3v-3h-3zm4 0v3h3v-3h-3zm4 0v3h3v-3h-3zm4 0v3h3v-3h-3zm4 0v3h3v-3h-3zm-15 1h1v1h-1v-1zm4 0h1v1h-1v-1zm4 0h1v1h-1v-1zm4 0h1v1h-1v-1zm4 0h1v1h-1v-1zM12 44.5c.282 0 .5.218.5.5 0 .282-.218.5-.5.5a.493.493 0 0 1-.5-.5c0-.282.218-.5.5-.5zm40 0c.282 0 .5.218.5.5 0 .282-.218.5-.5.5a.493.493 0 0 1-.5-.5c0-.282.218-.5.5-.5zM21 45h22v1c0 .563-.437 1-1 1H22c-.563 0-1-.437-1-1v-1zm-10 8h2v2h-2v-2zm40 0h2v2h-2v-2zm-20 6h2v2h-2v-2z" color="#000" font-family="sans-serif" font-weight="400" overflow="visible"/></svg>