<svg xmlns="http://www.w3.org/2000/svg" xmlns:xlink="http://www.w3.org/1999/xlink" viewBox="0 0 16 16"><defs><linearGradient id="j" x1="-861" x2="-853" y1="1072.362" y2="1072.362" gradientUnits="userSpaceOnUse" xlink:href="#a"/><linearGradient id="f"><stop class="stopColorfc6a28 svgShape" offset="0" stop-color="#fc2828"/><stop class="stopColorf94045 svgShape" offset="1" stop-color="red"/></linearGradient><linearGradient id="d"><stop class="stopColorfcd234 svgShape" offset="0" stop-color="#fc3434"/><stop class="stopColorf7ab28 svgShape" offset="1" stop-color="#f72828"/></linearGradient><linearGradient id="h" x1="-862" x2="-852" y1="1078.862" y2="1078.862" gradientUnits="userSpaceOnUse" xlink:href="#b"/><linearGradient id="b"><stop class="stopColor402d5f svgShape" offset="0" stop-color="#05008e"/><stop class="stopColor30213f svgShape" offset="1" stop-color="#22213f" stop-opacity=".98"/></linearGradient><linearGradient id="i" x1="-860" x2="-854" y1="1080.362" y2="1080.362" gradientUnits="userSpaceOnUse" xlink:href="#c"/><linearGradient id="c"><stop class="stopColorf3f3f3 svgShape" offset="0" stop-color="#f3f3f3"/><stop class="stopColordfe3e4 svgShape" offset="1" stop-color="#e4dfdf"/></linearGradient><linearGradient id="g" x1="-865.406" x2="-850" y1="1076.362" y2="1076.362" gradientUnits="userSpaceOnUse" xlink:href="#d"/><linearGradient id="a"><stop class="stopColor402d5f svgShape" offset="0" stop-color="#05008e"/><stop class="stopColor2f213e svgShape" offset="1" stop-color="#22213e"/></linearGradient><linearGradient id="k" x1="-862" x2="-858" y1="1075.861" y2="1075.861" gradientUnits="userSpaceOnUse" xlink:href="#e"/><linearGradient id="e"><stop class="stopColor485960 svgShape" offset="0" stop-color="#494860"/><stop class="stopColor3d4e55 svgShape" offset="1" stop-color="#3e3d55"/></linearGradient><linearGradient id="l" x1="-858.986" x2="-855" y1="1079.861" y2="1079.861" gradientUnits="userSpaceOnUse" xlink:href="#e"/><linearGradient id="m" x1="-855" x2="-854" y1="1075.862" y2="1075.862" gradientUnits="userSpaceOnUse" xlink:href="#f"/><linearGradient id="n" x1="-860" x2="-854" y1="1071.862" y2="1071.862" gradientUnits="userSpaceOnUse" xlink:href="#c"/></defs><path fill="url(#g)" d="M-860.247 1080.362h-2.82c-.517 0-.933-.446-.933-1v-6c0-.554.416-1 .933-1h12.134c.517 0 .933.446.933 1v6c0 .554-.416 1-.933 1h-2.793" opacity=".98" transform="translate(865 -1067.362)"/><path fill="url(#h)" d="M-862 1077.362h10v3h-10z" transform="translate(865 -1067.362)"/><path fill="url(#i)" d="M-860 1078.362h6v4h-6z" opacity=".98" transform="translate(865 -1067.362)"/><path fill="url(#j)" d="M-861 1070.362h8v4h-8z" transform="translate(865 -1067.362)"/><path fill="url(#k)" fill-rule="evenodd" style="line-height:normal;text-indent:0;text-align:start;text-decoration-line:none;text-decoration-style:solid;text-decoration-color:#000;text-transform:none;block-progression:tb;white-space:normal;isolation:auto;mix-blend-mode:normal;solid-color:#000;solid-opacity:1" d="M-862 1075.361v1h4v-1h-4z" color="#000" font-family="sans-serif" font-weight="400" overflow="visible" transform="translate(865 -1067.362)"/><path fill="url(#l)" fill-rule="evenodd" style="line-height:normal;text-indent:0;text-align:start;text-decoration-line:none;text-decoration-style:solid;text-decoration-color:#000;text-transform:none;block-progression:tb;white-space:normal;isolation:auto;mix-blend-mode:normal;solid-color:#000;solid-opacity:1" d="M-858.986 1079.361v1H-855v-1h-3.986z" color="#000" font-family="sans-serif" font-weight="400" overflow="visible" transform="translate(865 -1067.362)"/><path fill="url(#m)" d="M-854 1075.862a.5.5 0 0 1-.5.5.5.5 0 0 1-.5-.5.5.5 0 0 1 .5-.5.5.5 0 0 1 .5.5z" opacity=".98" transform="translate(865 -1067.362)"/><path fill="url(#n)" d="M-860 1069.362h5l1 1v4h-6z" transform="translate(865 -1067.362)"/><path fill="#cacad8" d="M11 3h-1V2" class="colorcad1d8 svgShape"/></svg>