<svg xmlns="http://www.w3.org/2000/svg" viewBox="0 0 32 32" id="Refresh"><g data-name="Layer 2" fill="#000000" class="color000000 svgShape"><path fill="#ff0000" d="M26 18a2 2 0 0 1-2-2 7.992 7.992 0 0 0-3.581-6.67 2 2 0 0 1 2.213-3.332 11.996 11.996 0 0 1 4.646 5.896l.308-.308a2 2 0 1 1 2.828 2.828l-3 3A1.998 1.998 0 0 1 26 18Z" class="colorffba17 svgShape"></path><path fill="#05008e" d="M16 28a12 12 0 0 1 0-24 2 2 0 0 1 0 4 8 8 0 0 0 0 16 7.924 7.924 0 0 0 4.896-1.673 2 2 0 0 1 2.45 3.162A11.89 11.89 0 0 1 16 28Z" class="color231f20 svgShape"></path></g></svg>