<svg xmlns="http://www.w3.org/2000/svg" data-name="Layer 2" viewBox="0 0 32 32" id="Search"><path fill="#05008e" d="M11.5 5V7A4.5049 4.5049 0 0116 11.5h2A6.5075 6.5075 0 0011.5 5zM28.623 23.6191L21.6689 18.21a1 1 0 00-1.3208.0825l-.3206.3206L18.207 16.793 16.793 18.207l1.8206 1.8206-.3206.3206a1 1 0 00-.0825 1.3208L23.62 28.6235a3.5678 3.5678 0 002.5933 1.37C26.2871 29.9976 26.3608 30 26.4341 30A3.5659 3.5659 0 0028.623 23.6191zm-1.0815 3.9224a1.5659 1.5659 0 01-2.3433-.146l-4.8667-6.2573.8066-.8066 6.2568 4.8662A1.566 1.566 0 0127.5415 27.5415z" class="color333333 svgShape"></path><path fill="#ff0000" d="M11.5,2A9.5,9.5,0,1,0,21,11.5,9.5108,9.5108,0,0,0,11.5,2Zm0,17A7.5,7.5,0,1,1,19,11.5,7.5082,7.5082,0,0,1,11.5,19Z" class="color36b7ff svgShape"></path></svg>