<svg xmlns="http://www.w3.org/2000/svg" viewBox="0 0 32 32" id="Setting"><g color="#000" font-family="sans-serif" font-weight="400" fill="#000000" class="color000000 svgShape"><path style="line-height:normal;text-indent:0;text-align:start;text-decoration-line:none;text-decoration-style:solid;text-decoration-color:#000;text-transform:none;block-progression:tb;isolation:auto;mix-blend-mode:normal" fill="#05008e" d="M13.363 1021.361a.5.5 0 0 0-.5.5v2.623c-1.07.28-2.095.7-3.052 1.252l-1.846-1.843a.5.5 0 0 0-.707 0l-3.727 3.728a.5.5 0 0 0 0 .707l1.85 1.85c-.556.956-.981 1.979-1.264 3.049H1.5a.5.5 0 0 0-.5.5V1034.867a.5.5 0 1 0 1 0v-.64h2.445a.5.5 0 0 0 .489-.391 11.358 11.358 0 0 1 1.455-3.516.5.5 0 0 0-.07-.619l-1.727-1.726 3.02-3.022 1.722 1.723a.5.5 0 0 0 .617.07 11.361 11.361 0 0 1 3.522-1.445.5.5 0 0 0 .39-.489v-2.451h4.274v2.445a.5.5 0 0 0 .388.489c1.246.284 2.434.775 3.516 1.455a.5.5 0 0 0 .621-.07l1.727-1.727 3.02 3.022-1.721 1.72a.5.5 0 0 0-.07.62 11.364 11.364 0 0 1 1.445 3.52.5.5 0 0 0 .486.392H30v4.271h-2.445a.5.5 0 0 0-.489.389 11.369 11.369 0 0 1-1.455 3.517.5.5 0 0 0 .07.62l1.727 1.726-3.02 3.022-1.722-1.723a.5.5 0 0 0-.617-.07 11.359 11.359 0 0 1-3.522 1.445.5.5 0 0 0-.39.488v2.45h-4.274v-2.446a.5.5 0 0 0-.388-.486 11.357 11.357 0 0 1-3.516-1.455.5.5 0 0 0-.621.07l-1.727 1.727-3.02-3.022 1.721-1.72a.5.5 0 0 0 .07-.62 11.365 11.365 0 0 1-1.444-3.521.5.5 0 0 0-.487-.391H2V1036.863a.5.5 0 1 0-1 0v2.135a.5.5 0 0 0 .5.5h2.623c.28 1.07.7 2.095 1.254 3.053l-1.846 1.846a.5.5 0 0 0 0 .707l3.727 3.728a.5.5 0 0 0 .707 0l1.85-1.85c.956.556 1.979.98 3.048 1.262v2.617a.5.5 0 0 0 .5.5h5.274a.5.5 0 0 0 .5-.5v-2.62c1.07-.28 2.094-.702 3.052-1.255l1.846 1.846a.5.5 0 0 0 .707 0l3.727-3.728a.5.5 0 0 0 0-.707l-1.85-1.85c.556-.957.981-1.98 1.264-3.049H30.5a.5.5 0 0 0 .5-.5v-5.271a.5.5 0 0 0-.5-.5h-2.623c-.28-1.071-.7-2.095-1.254-3.053l1.846-1.846a.5.5 0 0 0 0-.707l-3.727-3.728a.5.5 0 0 0-.707 0l-1.85 1.85a12.33 12.33 0 0 0-3.048-1.263v-2.619a.5.5 0 0 0-.5-.5h-5.274z" overflow="visible" transform="translate(0 -1020.362)" class="color2b4255 svgShape"></path><path style="line-height:normal;text-indent:0;text-align:start;text-decoration-line:none;text-decoration-style:solid;text-decoration-color:#000;text-transform:none;block-progression:tb;isolation:auto;mix-blend-mode:normal" fill="#ff0000" d="M15.992 1029.355a.5.5 0 0 0-.21.051 6.959 6.959 0 0 0-6.737 6.737.5.5 0 0 0 0 .441c.04 1.21.443 2.288 1.023 3.268a.5.5 0 0 0 .004.01.5.5 0 0 0 .04.057c1.19 1.96 3.231 3.322 5.67 3.402a.5.5 0 0 0 .405.016 6.993 6.993 0 0 0 6.422-4.662.5.5 0 1 0-.943-.33c-.097.279-.275.511-.41.77H16.5v-2.25h5.482a.5.5 0 0 0 .998.016c.01-.137.014-.276.016-.415a.5.5 0 0 0-.002-.212 7.094 7.094 0 0 0-.027-.563.5.5 0 1 0-.994.096c.002.026.001.052.004.078H16.5v-2.25h4.738c.054.102.173.153.22.258.036.079.07.155.1.23a.5.5 0 1 0 .926-.379 6.987 6.987 0 0 0-6.305-4.332.5.5 0 0 0-.187-.032zm.508 1.08c1.615.138 2.885 1.017 3.879 2.176H16.5v-2.176zm-1 .027v2.149h-4.078a5.865 5.865 0 0 1 4.078-2.149zm-4.752 3.149H15.5v2.25h-5.398c.07-.813.285-1.563.646-2.25zm-.648 3.25h5.4v2.25h-4.752a5.878 5.878 0 0 1-.648-2.25zm1.322 3.25H15.5v2.15a5.863 5.863 0 0 1-4.078-2.15zm5.078 0h4.148c-.997 1.235-2.471 2.028-4.148 2.172v-2.172z" overflow="visible" transform="translate(0 -1020.362)" class="colorf05542 svgShape"></path><path style="line-height:normal;text-indent:0;text-align:start;text-decoration-line:none;text-decoration-style:solid;text-decoration-color:#000;text-transform:none;block-progression:tb;isolation:auto;mix-blend-mode:normal" fill="#ff0000" fill-rule="evenodd" d="M13.3 1030.123c-1.684 4.148-1.964 8.122-.126 12.432l.92-.393c-1.739-4.076-1.484-7.68.133-11.662l-.926-.377zm5.35 0-.927.377c1.617 3.982 1.873 7.586.134 11.662l.92.393c1.838-4.31 1.558-8.284-.127-12.432z" overflow="visible" transform="translate(0 -1020.362)" class="colorf05542 svgShape"></path></g></svg>