<svg xmlns="http://www.w3.org/2000/svg" viewBox="0 0 32 32"><g class="color000000 svgShape" transform="translate(0 -1020.362)"><circle cx="16" cy="1036.362" r="16" fill="#3d3a87" class="color3a6c87 svgShape"/><path style="line-height:normal;text-indent:0;text-align:start;text-decoration-line:none;text-decoration-style:solid;text-decoration-color:#000;text-transform:none;block-progression:tb;isolation:auto;mix-blend-mode:normal" fill="#05008e" d="M20.676 31.283a16 16 0 0 0 1.12-.37 16 16 0 0 0 1.462-.653 16 16 0 0 0 1.387-.797 16 16 0 0 0 1.3-.93 16 16 0 0 0 1.201-1.054 16 16 0 0 0 1.092-1.172 16 16 0 0 0 .967-1.272 16 16 0 0 0 .836-1.365 16 16 0 0 0 .695-1.44 16 16 0 0 0 .55-1.501 16 16 0 0 0 .009-.043l-9.99-9.99A7.48 7.48 0 0 0 16 8.501a7.48 7.48 0 0 0-5.305 2.193c-2.924 2.925-2.924 7.683 0 10.608l9.98 9.98z" class="color2f4b6c svgShape" color="#000" font-family="sans-serif" font-weight="400" transform="translate(0 1020.362)"/><path style="line-height:normal;text-indent:0;text-align:start;text-decoration-line:none;text-decoration-style:solid;text-decoration-color:#000;text-transform:none;block-progression:tb;isolation:auto;mix-blend-mode:normal" fill="red" d="M8.504 1.006a7.48 7.48 0 0 0-5.305 2.193C.274 6.124.274 10.882 3.2 13.807c2.925 2.924 7.683 2.924 10.608 0 2.924-2.925 2.924-7.683 0-10.608a7.475 7.475 0 0 0-5.303-2.193Zm0 .994c1.662 0 3.324.635 4.596 1.906a6.494 6.494 0 0 1 0 9.194 6.494 6.494 0 0 1-9.194 0 6.494 6.494 0 0 1 0-9.194A6.482 6.482 0 0 1 8.504 2Zm2.96 4.502a.5.5 0 0 0-.26.103L7.55 9.345 5.857 7.653a.5.5 0 1 0-.707.707l2 2a.5.5 0 0 0 .653.047l4-3a.5.5 0 0 0-.287-.904.5.5 0 0 0-.051 0z" class="colorffffff svgShape" color="#000" font-family="sans-serif" font-weight="400" overflow="visible" transform="translate(7.497 1027.86)"/></g></svg>