<svg xmlns="http://www.w3.org/2000/svg" xmlns:xlink="http://www.w3.org/1999/xlink" data-name="Layer 1" viewBox="0 0 100 100"><defs><linearGradient id="a" x1="22.68" x2="77.32" y1="50.08" y2="50.08" gradientUnits="userSpaceOnUse"><stop class="stopColor6cc4c7 svgShape" offset="0" stop-color="#6f6cc7"/><stop class="stopColor35398e svgShape" offset=".81" stop-color="#05008e"/></linearGradient><linearGradient id="b" x1="39.31" x2="60.69" y1="50.08" y2="50.08" xlink:href="#a"/></defs><path fill="url(#a)" d="M50,22.76A27.32,27.32,0,1,0,77.32,50.08,27.36,27.36,0,0,0,50,22.76Zm0,51.73A24.41,24.41,0,1,1,74.41,50.08,24.44,24.44,0,0,1,50,74.49Z"/><path fill="url(#b)" d="M50.76,36.73c3.87,0,7,2.71,7,6h2.91c0-4.44-3.62-8.12-8.34-8.81V29.64H49.44v4.27c-4.85.58-8.61,4.33-8.61,8.85s3.54,8.06,8.19,8.81a1.38,1.38,0,0,0,.62.14c4.08,0,7.41,2.86,7.41,6.37s-3.33,6.38-7.41,6.38-7.42-2.86-7.42-6.38H39.31c0,5.07,4.53,9.19,10.13,9.29v3.15h2.91V67C56.73,66,60,62.36,60,58.08c0-4.59-3.72-8.42-8.6-9.16a1.5,1.5,0,0,0-.6-.13c-3.87,0-7-2.7-7-6S46.89,36.73,50.76,36.73Z"/><path fill="red" d="M56.66,9.14l9.18-3.41L64.83,3,49.49,8.7A1.46,1.46,0,0,0,50,11.52,38.61,38.61,0,0,1,88.56,50.08h2.91A41.55,41.55,0,0,0,56.66,9.14Z" class="color384797 svgShape"/><path fill="#4541c1" d="M50,88.64A38.61,38.61,0,0,1,11.44,50.08H8.53A41.54,41.54,0,0,0,42.75,90.92L32.54,94.23l.9,2.77,17-5.52A1.46,1.46,0,0,0,50,88.64Z" class="color41bac1 svgShape"/></svg>