<svg xmlns="http://www.w3.org/2000/svg" enable-background="new 0 0 128 128" viewBox="0 0 128 128"><circle cx="64" cy="66" r="20" fill="red" class="colordfe8f4 svgShape"/><path fill="#05008e" d="M64 89c-12.7 0-23-10.3-23-23s10.3-23 23-23 23 10.3 23 23S76.7 89 64 89zM64 49c-9.4 0-17 7.6-17 17s7.6 17 17 17 17-7.6 17-17S73.4 49 64 49zM100.5 118.7c-.8 0-1.6-.3-2.2-.9-9-9.6-21.2-14.9-34.3-14.9s-25.3 5.3-34.3 14.9c-1.1 1.2-3 1.3-4.2.1-1.2-1.1-1.3-3-.1-4.2C35.3 103 49.4 96.8 64 96.8s28.7 6.1 38.7 16.8c1.1 1.2 1.1 3.1-.1 4.2C102 118.4 101.2 118.7 100.5 118.7z" class="color444b54 svgShape"/><path fill="red" d="M124.5 71.9c-.8 0-1.6-.3-2.2-.9-6.6-7.1-15.6-11-25.3-11-1.7 0-3-1.3-3-3s1.3-3 3-3c11.2 0 22 4.7 29.7 12.9 1.1 1.2 1.1 3.1-.1 4.2C126 71.6 125.2 71.9 124.5 71.9zM97 13.6c-8.3 0-15.1 6.8-15.1 15.1S88.7 43.8 97 43.8s15.1-6.8 15.1-15.1S105.3 13.6 97 13.6zM3.5 71.9c-.7 0-1.5-.3-2.1-.8-1.2-1.1-1.3-3-.1-4.2C9 58.6 19.8 53.9 31 53.9c1.7 0 3 1.3 3 3s-1.3 3-3 3c-9.7 0-18.7 3.9-25.3 11C5.1 71.6 4.3 71.9 3.5 71.9zM31 13.6c-8.3 0-15.1 6.8-15.1 15.1S22.7 43.8 31 43.8 46.1 37 46.1 28.7 39.3 13.6 31 13.6z" class="colordfe8f4 svgShape"/></svg>