<svg xmlns="http://www.w3.org/2000/svg" viewBox="0 0 48 48"><path fill="#d78080" d="M30 14H8c-2.2 0-4 1.8-4 4v18c0 2.2 1.8 4 4 4h28c2.2 0 4-1.8 4-4V21.429" class="colord79480 svgShape"/><circle cx="37" cy="15" r="7" fill="red" class="colorf58b87 svgShape"/><path fill="#ff8e8e" d="M39 34h-8.105C28.744 34 27 32.209 27 30s1.744-4 3.895-4H39" class="colorffd28e svgShape"/><path fill="#0012ff" d="M37 19a1 1 0 0 1-1-1v-6a1 1 0 1 1 2 0v6a1 1 0 0 1-1 1z" class="color444a54 svgShape"/><path fill="#0012ff" d="M40 16h-6a1 1 0 1 1 0-2h6a1 1 0 1 1 0 2z" class="color444a54 svgShape"/><path fill="#0012ff" d="M45 15c0-4.411-3.589-8-8-8-3.719 0-6.845 2.555-7.737 6H8c-2.757 0-5 2.243-5 5v18c0 2.757 2.243 5 5 5h28c2.757 0 5-2.243 5-5V21.918c2.387-1.386 4-3.965 4-6.918zm-6 18h-8.105C29.299 33 28 31.654 28 30s1.299-3 2.895-3H39v6zm0-8h-8.105C28.195 25 26 27.243 26 30s2.195 5 4.895 5H39v1c0 1.654-1.346 3-3 3H8c-1.654 0-3-1.346-3-3V18c0-1.654 1.346-3 3-3h21c0 4.411 3.589 8 8 8 .692 0 1.359-.097 2-.263V25zm-2-4c-3.309 0-6-2.691-6-6s2.691-6 6-6 6 2.691 6 6-2.691 6-6 6z" class="color444a54 svgShape"/><ellipse cx="30.974" cy="30" fill="#0012ff" class="color444a54 svgShape" rx=".974" ry="1"/></svg>