<svg xmlns="http://www.w3.org/2000/svg" data-name="Layer 1" viewBox="0 0 48 48" id="Wallet"><path fill="#05008e" d="M33,7a9,9,0,1,0,9,9A9.01,9.01,0,0,0,33,7Zm0,8a2.993,2.993,0,0,1,1,5.816V21a1,1,0,0,1-2,0v-.184A3,3,0,0,1,30,18a1,1,0,0,1,2,0,1,1,0,1,0,1-1,2.993,2.993,0,0,1-1-5.816V11a1,1,0,0,1,2,0v.184A3,3,0,0,1,36,14a1,1,0,0,1-2,0,1,1,0,1,0-1,1Z" class="color3e3ef4 svgShape"></path><path d="M12,22H5a1,1,0,0,1-1-1V18a5.006,5.006,0,0,1,5-5h3a1,1,0,0,1,1,1v7A1,1,0,0,1,12,22ZM6,20h5V15H9a3,3,0,0,0-3,3Z" fill="#ff0000" class="color000000 svgShape"></path><path fill="#05008e" d="M23 16a9.934 9.934 0 002.01 6H18a1 1 0 001-1V4h8a3.005 3.005 0 012.95 2.48A10.02 10.02 0 0023 16zM17 21V4H13a3 3 0 00-3 3V21a1 1 0 001 1h7A1 1 0 0117 21z" class="color3e3ef4 svgShape"></path><path d="M34,33a3,3,0,0,0,3,3h7V30H37A3,3,0,0,0,34,33Z" fill="#ff0000" class="color000000 svgShape"></path><path d="M37,38a5,5,0,0,1,0-10h7V23a3,3,0,0,0-3-3H5a1,1,0,0,0-1,1V39a5.006,5.006,0,0,0,5,5H41a3,3,0,0,0,3-3V38ZM10,29h4a1,1,0,0,1,0,2H10a1,1,0,0,1,0-2Zm8,6H10a1,1,0,0,1,0-2h8a1,1,0,0,1,0,2Z" fill="#ff0000" class="color000000 svgShape"></path></svg>