<svg xmlns="http://www.w3.org/2000/svg" viewBox="0 0 48 48"><path fill="red" d="M48 24c0 13.3-10.8 24-24 24S0 37.2 0 24 10.8 0 24 0s24 10.8 24 24z" class="color3a6c87 svgShape"/><path fill="#fff" d="M23.5 32h-.2c-.4-.2-3.8-1.8-3.8-4v-2.5c0-.3.2-.5.5-.5s.5.2.5.5V28c0 1.2 2 2.5 3 2.9 1-.5 3-1.7 3-2.9v-2.5c0-.3.2-.5.5-.5s.5.2.5.5V28c0 2.2-3.4 3.8-3.8 4h-.2z" class="colorffffff svgShape"/><path fill="#fff" d="M23.5 27c-3.9 0-7-3.1-7-7v-2.5c0-.3.2-.5.5-.5s.5.2.5.5V20c0 3.3 2.7 6 6 6s6-2.7 6-6v-2.5c0-.3.2-.5.5-.5s.5.2.5.5V20c0 3.9-3.1 7-7 7z" class="colorffffff svgShape"/><path fill="#fff" d="M30 18h-.5c-.8 0-1.5-.7-1.5-1.5v-2c-2.1 1.6-4.9 2.2-7.5 1.7l-1.1-.2c-.2 0-.4.2-.4.5 0 .8-.7 1.5-1.5 1.5H17c-.2 0-.4-.2-.5-.4l-.9-4.4c-.2-.9 0-1.8.6-2.6.5-.8 1.3-1.3 2.2-1.4L25.2 8c1-.2 2 .1 2.7.7.7.6 1.1 1.3 1.2 2.2.7.1 1.3.5 1.7 1 .5.7.8 1.5.6 2.4l-1 3.3c0 .3-.2.4-.4.4zm-2-4.5c.2 0 .3 0 .4.1.3.2.6.5.6.9v2c0 .3.2.5.5.5h.1l.9-2.9c.1-.5 0-1.1-.4-1.5-.4-.4-.9-.7-1.4-.7-.3 0-.5-.2-.5-.5 0-.8-.3-1.4-.8-1.9-.5-.4-1.2-.6-1.9-.5l-6.9 1.1c-.6.1-1.2.5-1.6 1-.4.5-.5 1.2-.4 1.8l.8 4h.1c.3 0 .5-.2.5-.5 0-.8.7-1.5 1.5-1.5l1.2.2c2.4.5 4.8-.1 6.7-1.5.2 0 .4-.1.6-.1zM36 40H11c-.3 0-.5-.2-.5-.5v-4.4c0-2.4 1.5-4.5 3.8-5.2l5.6-1.9c.3-.1.5.1.6.3s-.1.5-.3.6l-5.6 1.9c-1.8.6-3.1 2.3-3.1 4.3V39h24v-3.9c0-1.9-1.2-3.7-3.1-4.3L26.8 29c-.3-.1-.4-.4-.3-.6.1-.3.4-.4.6-.3l5.6 1.9c2.3.7 3.8 2.8 3.8 5.2v4.4c0 .2-.2.4-.5.4z" class="colorffffff svgShape"/><path fill="#fff" d="M36 40h-6c-.3 0-.5-.2-.5-.5v-1c0-3.3 2.5-6.1 5.7-6.4.2 0 .4.1.5.2.5.9.8 1.8.8 2.8v4.4c0 .3-.2.5-.5.5zm-5.5-1h5v-3.9c0-.7-.2-1.4-.5-2-2.6.5-4.5 2.7-4.5 5.4v.5zM17 40h-6c-.3 0-.5-.2-.5-.5v-4.4c0-1 .3-2 .8-2.8.1-.2.3-.3.5-.2 3.3.4 5.7 3.2 5.7 6.4v1c0 .3-.2.5-.5.5zm-5.5-1h5v-.5c0-2.7-1.9-4.9-4.5-5.4-.3.6-.5 1.3-.5 2V39zM32 21h-2c-.3 0-.5-.2-.5-.5v-3c0-.3.2-.5.5-.5h1c.8 0 1.5.7 1.5 1.5v2c0 .3-.2.5-.5.5zm-1.5-1h1v-1.5c0-.3-.2-.5-.5-.5h-.5v2z" class="colorffffff svgShape"/><path fill="#fff" d="M29 24h-3c-.3 0-.5-.2-.5-.5s.2-.5.5-.5h3c1.4 0 2.5-1.1 2.5-2.5v-2c0-.3.2-.5.5-.5s.5.2.5.5v2c0 1.9-1.6 3.5-3.5 3.5zm-12-3h-1c-.8 0-1.5-.7-1.5-1.5v-1c0-.8.7-1.5 1.5-1.5h1c.3 0 .5.2.5.5v3c0 .3-.2.5-.5.5zm-1-3c-.3 0-.5.2-.5.5v1c0 .3.2.5.5.5h.5v-2H16z" class="colorffffff svgShape"/><path fill="#fff" d="M25 25h-1c-.8 0-1.5-.7-1.5-1.5S23.2 22 24 22h1c.8 0 1.5.7 1.5 1.5S25.8 25 25 25zm-1-2c-.3 0-.5.2-.5.5s.2.5.5.5h1c.3 0 .5-.2.5-.5s-.2-.5-.5-.5h-1z" class="colorffffff svgShape"/></svg>