<svg xmlns="http://www.w3.org/2000/svg" viewBox="0 0 256 256" id="ticketadd"><linearGradient id="a" x1="301.364" x2="301.364" y1="-24.226" y2="-233.737" gradientTransform="matrix(1 0 0 -1 -178 -11)" gradientUnits="userSpaceOnUse"><stop offset="0" stop-color="#f92d2d" class="stopColorf9aa2d svgShape"></stop><stop offset="1" stop-color="#ff0000" class="stopColore09115 svgShape"></stop></linearGradient><path fill="url(#a)" d="m244.672 84.122-15.268-20.063c-9.385 3.542-20.354.709-26.737-7.681-6.385-8.393-6.188-19.721-.271-27.821l-15.94-20.948c-3.373-4.435-9.763-5.303-14.197-1.928l-23.058 17.544c.287.155.55.37.759.646a2.388 2.388 0 1 1-3.802 2.894 2.36 2.36 0 0 1-.42-.904L3.986 133.709c-4.435 3.375-5.303 9.764-1.929 14.198l15.938 20.948c9.386-3.541 20.355-.711 26.74 7.684 6.386 8.391 6.19 19.72.272 27.814l15.266 20.07c3.374 4.434 9.764 5.301 14.2 1.928l141.819-107.906a2.389 2.389 0 0 1-.931-.726 2.39 2.39 0 1 1 3.803-2.893c.253.33.395.707.451 1.09l23.13-17.597c4.433-3.373 5.301-9.761 1.927-14.197zm-90.246-50.437a2.39 2.39 0 1 1-2.893-3.802 2.39 2.39 0 0 1 3.35.453 2.393 2.393 0 0 1-.457 3.349zm4.917 6.464c-1.05.8-2.547.598-3.345-.454a2.384 2.384 0 0 1 .454-3.348 2.389 2.389 0 1 1 2.891 3.802zm4.923 6.468a2.392 2.392 0 0 1-3.351-.457 2.388 2.388 0 1 1 3.802-2.894 2.393 2.393 0 0 1-.451 3.351zm4.918 6.465a2.39 2.39 0 1 1-2.893-3.804 2.39 2.39 0 0 1 2.893 3.804zm4.92 6.466a2.393 2.393 0 0 1-3.348-.455 2.387 2.387 0 0 1 .456-3.35 2.388 2.388 0 0 1 3.345.454 2.393 2.393 0 0 1-.453 3.351zm5.389 7.085a2.39 2.39 0 1 1-2.893-3.802 2.39 2.39 0 0 1 2.893 3.802zm4.921 6.467a2.394 2.394 0 0 1-3.35-.455 2.39 2.39 0 1 1 3.35.455zm4.92 6.466a2.39 2.39 0 1 1-2.893-3.806 2.39 2.39 0 0 1 2.893 3.806zm4.92 6.463a2.391 2.391 0 0 1-2.897-3.803 2.394 2.394 0 0 1 3.351.457 2.389 2.389 0 0 1-.454 3.346zm4.917 6.466a2.39 2.39 0 0 1-3.349-.454 2.384 2.384 0 0 1 .457-3.349 2.39 2.39 0 0 1 2.892 3.803zm4.92 6.465a2.387 2.387 0 0 1-3.347-.455 2.389 2.389 0 1 1 3.801-2.891 2.385 2.385 0 0 1-.454 3.346zm4.78 6.287a2.39 2.39 0 1 1-2.893-3.81 2.39 2.39 0 0 1 2.893 3.81zm4.92 6.463a2.39 2.39 0 1 1-2.895-3.802 2.39 2.39 0 0 1 2.895 3.802z"></path><path fill="#05008e" d="M44.734 172.364c-6.385-8.394-17.354-11.224-26.74-7.683L2.057 143.732a10.02 10.02 0 0 1-1.832-4.039c-.582 2.781-.014 5.789 1.832 8.214l15.938 20.948c9.386-3.541 20.355-.711 26.74 7.684a23.101 23.101 0 0 1 4.648 11.967c.496-5.572-.993-11.337-4.649-16.142zm170.627-54.643a2.381 2.381 0 0 1-.191-2.595L74.472 222.178c-4.436 3.372-10.826 2.506-14.2-1.927L46.45 202.08c-.44.779-.912 1.543-1.444 2.273l15.266 20.07c3.374 4.434 9.764 5.301 14.2 1.928l141.819-107.906a2.362 2.362 0 0 1-.93-.724zm.771-3.543a2.382 2.382 0 0 1 3.031.651c.253.33.396.707.451 1.09l23.13-17.597c3.201-2.438 4.533-6.448 3.76-10.16a10.062 10.062 0 0 1-3.76 5.986l-23.13 17.597-3.482 2.433z" opacity=".2" class="color2c2c2c svgShape"></path><linearGradient id="b" x1="223.623" x2="365.699" y1="-135.598" y2="-135.598" gradientTransform="matrix(1 0 0 -1 -178 -11)" gradientUnits="userSpaceOnUse"><stop offset="0" stop-color="#fe8787" class="stopColorfee587 svgShape"></stop><stop offset="1" stop-color="#f27272" class="stopColorf2d972 svgShape"></stop></linearGradient><path fill="url(#b)" d="M186.671 106.759c1.688 2.216 1.251 5.412-.968 7.098l-97.808 74.42c-2.218 1.688-5.413 1.252-7.101-.965l-34.142-44.873c-1.688-2.217-1.253-5.412.965-7.101l97.813-74.42c2.215-1.688 5.412-1.252 7.098.963l34.143 44.878z"></path><path fill="#0e0d33" d="m86.687 140.259-4.323 3.418 10.796 13.656c.622.786.9 1.514.837 2.183-.065.668-.386 1.231-.964 1.688-.587.464-1.218.649-1.89.557-.674-.094-1.318-.528-1.933-1.306l-10.796-13.656-4.323 3.417c-.676.535-1.292.788-1.848.763-.556-.027-1.019-.275-1.391-.745-.385-.487-.518-1.008-.399-1.56.12-.554.504-1.086 1.153-1.6l12.595-9.957c.685-.541 1.31-.798 1.873-.771s1.031.275 1.403.746c.372.47.501.981.39 1.535-.111.554-.505 1.098-1.18 1.632zm5.694-4.316c-.507.401-1.059.595-1.656.58-.596-.014-1.111-.294-1.544-.842a1.977 1.977 0 0 1-.414-1.663 2.427 2.427 0 0 1 .907-1.498 2.499 2.499 0 0 1 1.599-.556c.595.003 1.111.281 1.55.837.426.538.581 1.101.465 1.685a2.402 2.402 0 0 1-.907 1.457zm4.66 2.193 7.999 10.118c.554.7.8 1.368.736 2-.063.634-.361 1.162-.895 1.584s-1.113.581-1.736.478c-.625-.104-1.207-.498-1.748-1.182l-7.917-10.016c-.547-.691-.792-1.345-.736-1.96.057-.613.352-1.132.885-1.554s1.113-.595 1.736-.52c.624.079 1.183.429 1.676 1.052zm23.08-5.389c.345.436.577 1.009.697 1.72.121.71.081 1.509-.12 2.397-.201.889-.616 1.803-1.245 2.744-.629.942-1.472 1.832-2.53 2.669-2.251 1.779-4.506 2.537-6.766 2.274-2.26-.262-4.228-1.453-5.904-3.573-1.136-1.437-1.851-2.935-2.144-4.494a7.757 7.757 0 0 1 .486-4.541c.618-1.468 1.687-2.803 3.208-4.005.942-.745 1.913-1.296 2.909-1.654.997-.357 1.934-.542 2.813-.556.878-.014 1.649.103 2.313.349.664.245 1.158.573 1.482.984.332.419.449.902.354 1.448-.095.548-.374 1.004-.836 1.37-.303.239-.612.362-.931.371-.319.009-.734-.055-1.247-.192-.958-.298-1.808-.417-2.55-.358s-1.486.383-2.233.974c-1.076.851-1.624 1.939-1.644 3.268-.019 1.329.525 2.693 1.633 4.095a7.869 7.869 0 0 0 1.688 1.615c.604.417 1.221.693 1.849.83a3.976 3.976 0 0 0 1.86-.033 4.644 4.644 0 0 0 1.732-.88c.729-.577 1.226-1.233 1.489-1.97.264-.735.332-1.596.205-2.579-.088-.569-.091-1.065-.009-1.492s.31-.787.684-1.083c.445-.352.942-.48 1.493-.388s.974.323 1.264.69zm13.367-6.128-7.23-2.536-.556 3.356 2.2 2.782c.534.676.76 1.342.678 1.997-.082.654-.363 1.172-.843 1.552-.561.443-1.143.611-1.747.505-.604-.105-1.183-.509-1.737-1.209l-11.8-14.926c-.615-.778-.928-1.493-.938-2.146-.009-.651.274-1.207.853-1.664.56-.443 1.15-.611 1.77-.503.62.107 1.214.521 1.781 1.239l6.711 8.488.832-7.367c.102-.914.211-1.57.33-1.969.118-.398.368-.75.75-1.052.454-.358.942-.518 1.464-.479.522.04.949.269 1.28.687.406.514.453 1.587.141 3.222l-.585 3.235 8.196 2.688c.606.201 1.057.363 1.349.486.293.123.517.283.672.479.439.556.627 1.118.565 1.689-.063.57-.352 1.059-.867 1.467-.445.352-.879.507-1.301.466-.423-.042-1.079-.203-1.968-.487zm12.037-17.08-7.125 5.632c.638.789 1.358 1.357 2.163 1.708s1.598.467 2.379.349a4.498 4.498 0 0 0 2.146-.946 5.743 5.743 0 0 0 1.077-1.093 5.08 5.08 0 0 0 .683-1.289c.173-.477.307-.947.401-1.412.096-.463.208-1.081.337-1.849.065-.302.271-.59.619-.864.373-.295.753-.436 1.141-.422.386.013.721.2 1.005.56.25.316.413.788.49 1.415.076.628.009 1.341-.204 2.142-.214.8-.611 1.64-1.196 2.518-.585.879-1.389 1.723-2.411 2.531-2.34 1.85-4.665 2.646-6.978 2.391s-4.337-1.482-6.074-3.68c-.817-1.034-1.416-2.121-1.795-3.258-.38-1.138-.513-2.266-.398-3.384.113-1.118.486-2.2 1.117-3.248.632-1.048 1.494-2.005 2.589-2.87 1.423-1.125 2.872-1.802 4.347-2.03s2.827-.085 4.057.428c1.23.514 2.221 1.247 2.971 2.195.696.881.885 1.658.566 2.334-.32.676-.955 1.39-1.907 2.142zm-8.695 3.645 6.604-5.221c-1.035-1.126-2.079-1.756-3.132-1.89-1.052-.133-2.054.177-3.006.929-.907.717-1.414 1.607-1.521 2.671-.104 1.063.246 2.233 1.055 3.511zm8.904-16.269.4-.316-1.662-2.104a18.794 18.794 0 0 1-1.003-1.364 2.42 2.42 0 0 1-.394-1.033 2.055 2.055 0 0 1 .152-1.068c.148-.361.388-.671.717-.932.463-.365 1.013-.529 1.649-.491a1.86 1.86 0 0 1 1.117.44c.32.268.714.696 1.18 1.286l1.886 2.386 1.335-1.055c.516-.408 1.002-.602 1.459-.582.457.021.831.215 1.121.583.372.471.439.953.201 1.446-.238.494-.719 1.026-1.438 1.595l-.681.538 5.089 6.438c.433.547.786.952 1.059 1.215.272.263.569.418.888.464.319.047.674-.084 1.065-.394.214-.168.474-.434.78-.795.309-.36.563-.623.769-.784.293-.232.647-.328 1.063-.287.415.04.754.226 1.018.559.446.564.467 1.25.063 2.056-.404.805-1.207 1.682-2.407 2.631-1.139.9-2.147 1.398-3.024 1.496-.878.096-1.665-.109-2.36-.614-.696-.505-1.474-1.301-2.332-2.387l-5.312-6.719-.48.38c-.525.415-1.02.612-1.484.591a1.471 1.471 0 0 1-1.134-.584 1.422 1.422 0 0 1-.281-1.247c.102-.463.431-.912.981-1.348z" class="color2c330d svgShape"></path><linearGradient id="c" x1="370.757" x2="370.757" y1="-138.812" y2="-263.742" gradientTransform="matrix(1 0 0 -1 -178 -11)" gradientUnits="userSpaceOnUse"><stop offset="0" stop-color="#5550e0" class="stopColor5ae050 svgShape"></stop><stop offset="1" stop-color="#3d37d4" class="stopColor40d437 svgShape"></stop></linearGradient><circle cx="192.757" cy="189.134" r="63.243" fill="url(#c)"></circle><path fill="#05008e" d="M192.757 250.29c-34.577 0-62.657-27.756-63.217-62.199-.006.349-.026.692-.026 1.043 0 34.929 28.314 63.243 63.243 63.243S256 224.063 256 189.134c0-.351-.021-.694-.025-1.043-.561 34.443-28.64 62.199-63.218 62.199z" opacity=".2" class="color2c2c2c svgShape"></path><path fill="#05008e" d="M229.184 179.454h-25.529v-25.53c0-4.011-3.279-7.293-7.293-7.293h-8.023c-4.013 0-7.295 3.282-7.295 7.293v25.53h-25.529c-4.014 0-7.295 3.282-7.295 7.297v8.024c0 4.011 3.281 7.293 7.295 7.293h25.529V227.6c0 4.01 3.282 7.293 7.295 7.293h8.023c4.014 0 7.293-3.283 7.293-7.293v-25.531h25.529c4.014 0 7.297-3.282 7.297-7.293v-8.024c-.001-4.016-3.286-7.298-7.297-7.298z" opacity=".1" class="color2c2c2c svgShape"></path><path fill="#ffffff" d="M229.184 178.063h-25.529v-25.529c0-4.012-3.279-7.294-7.293-7.294h-8.023c-4.013 0-7.295 3.282-7.295 7.294v25.529h-25.529c-4.014 0-7.295 3.283-7.295 7.297v8.023c0 4.012 3.281 7.294 7.295 7.294h25.529v25.53c0 4.011 3.282 7.294 7.295 7.294h8.023c4.014 0 7.293-3.283 7.293-7.294v-25.53h25.529c4.014 0 7.297-3.282 7.297-7.294v-8.023c-.001-4.014-3.286-7.297-7.297-7.297z" class="colorffffff svgShape"></path><path fill="#05008e" d="M181.042 199.286h-25.53c-4.013 0-7.294-3.282-7.294-7.294v1.392c0 4.011 3.281 7.294 7.294 7.294h25.53v-1.392zm15.317 32.823h-8.022c-4.013 0-7.295-3.282-7.295-7.293v1.392c0 4.011 3.282 7.294 7.295 7.294h8.022c4.015 0 7.293-3.283 7.293-7.294v-1.392c0 4.011-3.278 7.293-7.293 7.293zm32.825-32.823h-25.529v1.392h25.529c4.014 0 7.297-3.283 7.297-7.294v-1.392c-.001 4.012-3.286 7.294-7.297 7.294z" opacity=".2" class="color2c2c2c svgShape"></path></svg>