<svg xmlns="http://www.w3.org/2000/svg" viewBox="0 0 32 32" id="Whatsapp"><path fill="#ff0000" d="M19 18.333a9.514 9.514 0 0 1-5.068-4.772L13.667 13l1.339-1.339a.463.463 0 0 0 0-.655l-1.99-1.99a.467.467 0 0 0-.7.045C10.533 11.346 11.222 15.222 14 18s6.654 3.467 8.939 1.682a.467.467 0 0 0 .045-.7l-1.99-1.99a.463.463 0 0 0-.655 0Z" class="colorff5533 svgShape"></path><path fill="none" stroke="#05008e" stroke-linecap="round" stroke-linejoin="round" stroke-width="2" d="M15.268 2.112A13 13 0 0 0 7 23.3L6 29l5.483-2.242a12.9 12.9 0 0 0 7.25 1.126 13 13 0 1 0-3.465-25.772Z" class="colorStroke212121 svgStroke"></path></svg>